SplineFontDB: 3.2
FontName: Syncopate-Regular
FullName: Syncopate Regular
FamilyName: Syncopate
Weight: Book
Copyright: Copyright (c) 2010 by Brian J. Bonislawsky DBA Astigmatic (AOETI). All rights reserved. Available under the Apache 2.0 licence.\nhttp://www.apache.org/licenses/LICENSE-2.0.html
Version: 001.001
ItalicAngle: 0
UnderlinePosition: -205
UnderlineWidth: 102
Ascent: 1638
Descent: 410
InvalidEm: 0
sfntRevision: 0x00010042
LayerCount: 2
Layer: 0 1 "Back" 1
Layer: 1 1 "Fore" 0
XUID: [1021 279 -392457681 6968440]
StyleMap: 0x0040
FSType: 0
OS2Version: 3
OS2_WeightWidthSlopeOnly: 0
OS2_UseTypoMetrics: 0
CreationTime: 1291959840
ModificationTime: 1594047116
PfmFamily: 17
TTFWeight: 400
TTFWidth: 7
LineGap: 150
VLineGap: 0
Panose: 2 0 5 5 0 0 0 2 0 3
OS2TypoAscent: 1556
OS2TypoAOffset: 0
OS2TypoDescent: -426
OS2TypoDOffset: 0
OS2TypoLinegap: 150
OS2WinAscent: 1853
OS2WinAOffset: 0
OS2WinDescent: 483
OS2WinDOffset: 0
HheadAscent: 1556
HheadAOffset: 0
HheadDescent: -426
HheadDOffset: 0
OS2SubXSize: 418
OS2SubYSize: 418
OS2SubXOff: 0
OS2SubYOff: 586
OS2SupXSize: 418
OS2SupYSize: 418
OS2SupXOff: 0
OS2SupYOff: 586
OS2StrikeYSize: 209
OS2StrikeYPos: 1049
OS2CapHeight: 1374
OS2XHeight: 958
OS2Vendor: 'AOEF'
OS2CodePages: 00000093.00000000
OS2UnicodeRanges: 80000027.0000004a.00000000.00000000
Lookup: 258 0 0 "'kern' Horizontal Kerning in Latin lookup 0" { "'kern' Horizontal Kerning in Latin lookup 0 per glyph data 0"  "'kern' Horizontal Kerning in Latin lookup 0 per glyph data 1"  "'kern' Horizontal Kerning in Latin lookup 0 kerning class 2"  } ['kern' ('latn' <'dflt' > ) ]
DEI: 91125
KernClass2: 23+ 25 "'kern' Horizontal Kerning in Latin lookup 0 kerning class 2"
 50 A Agrave Aacute Acircumflex Atilde Adieresis Aring
 10 C Ccedilla
 5 D Eth
 1 F
 1 G
 1 K
 1 L
 53 O Q Ograve Oacute Ocircumflex Otilde Odieresis Oslash
 1 P
 1 R
 1 T
 37 U Ugrave Uacute Ucircumflex Udieresis
 1 V
 1 W
 8 Y Yacute
 50 a agrave aacute acircumflex atilde adieresis aring

StartChar: zero
Encoding: 48 48 1
Width: 1706
Flags: W
LayerCount: 2
Fore
SplineSet
1581 686 m 256,0,1
 1581 571 1581 571 1552.5 473.5 c 128,-1,2
 1524 376 1524 376 1474 297 c 128,-1,3
 1424 218 1424 218 1355 157.5 c 128,-1,4
 1286 97 1286 97 1205.5 56 c 128,-1,5
 1125 15 1125 15 1035.5 -6 c 128,-1,6
 946 -27 946 -27 854 -27 c 256,7,8
 762 -27 762 -27 672.5 -6 c 128,-1,9
 583 15 583 15 502 56 c 128,-1,10
 421 97 421 97 352 157.5 c 128,-1,11
 283 218 283 218 232.5 297 c 128,-1,12
 182 376 182 376 153.5 473.5 c 128,-1,13
 125 571 125 571 125 686 c 256,14,15
 125 801 125 801 153.5 898.5 c 128,-1,16
 182 996 182 996 232.5 1075 c 128,-1,17
 283 1154 283 1154 352 1214.5 c 128,-1,18
 421 1275 421 1275 502 1316 c 128,-1,19
 583 1357 583 1357 672.5 1378 c 128,-1,20
 762 1399 762 1399 854 1399 c 256,21,22
 946 1399 946 1399 1035.5 1378 c 128,-1,23
 1125 1357 1125 1357 1205.5 1316 c 128,-1,24
 1286 1275 1286 1275 1355 1214.5 c 128,-1,25
 1424 1154 1424 1154 1474 1075 c 128,-1,26
 1524 996 1524 996 1552.5 898.5 c 128,-1,27
 1581 801 1581 801 1581 686 c 256,0,1
1456 686 m 256,28,29
 1456 788 1456 788 1431.5 873 c 128,-1,30
 1407 958 1407 958 1364.5 1025 c 128,-1,31
 1322 1092 1322 1092 1264 1142 c 128,-1,32
 1206 1192 1206 1192 1139.5 1224.5 c 128,-1,33
 1073 1257 1073 1257 1000 1273.5 c 128,-1,34
 927 1290 927 1290 854 1290 c 0,35,36
 744 1290 744 1290 636 1253.5 c 128,-1,37
 528 1217 528 1217 442 1142 c 128,-1,38
 356 1067 356 1067 303 953.5 c 128,-1,39
 250 840 250 840 250 686 c 256,40,41
 250 532 250 532 303 418.5 c 128,-1,42
 356 305 356 305 442 230 c 128,-1,43
 528 155 528 155 636 118.5 c 128,-1,44
 744 82 744 82 854 82 c 0,45,46
 927 82 927 82 1000 98.5 c 128,-1,47
 1073 115 1073 115 1140 148 c 128,-1,48
 1207 181 1207 181 1265 231 c 128,-1,49
 1323 281 1323 281 1365.5 348.5 c 128,-1,50
 1408 416 1408 416 1432 500 c 128,-1,51
 1456 584 1456 584 1456 686 c 256,28,29
EndSplineSet
EndChar

StartChar: one
Encoding: 49 49 2
Width: 696
Flags: W
LayerCount: 2
Fore
SplineSet
328 0 m 1,0,-1
 328 1264 l 1,1,-1
 0 1161 l 1,2,-1
 0 1272 l 1,3,-1
 328 1374 l 1,4,-1
 451 1374 l 1,5,-1
 451 0 l 1,6,-1
 328 0 l 1,0,-1
EndSplineSet
EndChar

StartChar: two
Encoding: 50 50 3
Width: 1491
Flags: W
LayerCount: 2
Fore
SplineSet
82 0 m 1,0,-1
 82 84 l 1,1,2
 341 229 341 229 551.5 350.5 c 128,-1,3
 762 472 762 472 910 578.5 c 128,-1,4
 1058 685 1058 685 1137 781.5 c 128,-1,5
 1216 878 1216 878 1212 973 c 0,6,7
 1209 1044 1209 1044 1172.5 1102.5 c 128,-1,8
 1136 1161 1136 1161 1067 1202.5 c 128,-1,9
 998 1244 998 1244 897 1267 c 128,-1,10
 796 1290 796 1290 664 1290 c 0,11,12
 582 1290 582 1290 507.5 1281 c 128,-1,13
 433 1272 433 1272 363.5 1253.5 c 128,-1,14
 294 1235 294 1235 228 1207 c 128,-1,15
 162 1179 162 1179 98 1141 c 1,16,-1
 98 1278 l 1,17,18
 167 1306 167 1306 232 1328.5 c 128,-1,19
 297 1351 297 1351 364 1367 c 128,-1,20
 431 1383 431 1383 503 1391 c 128,-1,21
 575 1399 575 1399 657 1399 c 0,22,23
 804 1399 804 1399 929 1370 c 128,-1,24
 1054 1341 1054 1341 1145 1285.5 c 128,-1,25
 1236 1230 1236 1230 1287.5 1149 c 128,-1,26
 1339 1068 1339 1068 1339 963 c 0,27,28
 1339 868 1339 868 1274 773 c 128,-1,29
 1209 678 1209 678 1084.5 576 c 128,-1,30
 960 474 960 474 778 361 c 128,-1,31
 596 248 596 248 362 115 c 1,32,-1
 1368 115 l 1,33,-1
 1368 0 l 1,34,-1
 82 0 l 1,0,-1
EndSplineSet
EndChar

StartChar: three
Encoding: 51 51 4
Width: 1487
Flags: W
LayerCount: 2
Fore
SplineSet
879 733 m 1,0,1
 997 718 997 718 1084.5 686 c 128,-1,2
 1172 654 1172 654 1229.5 610 c 128,-1,3
 1287 566 1287 566 1315 510.5 c 128,-1,4
 1343 455 1343 455 1343 393 c 0,5,6
 1343 285 1343 285 1288.5 205.5 c 128,-1,7
 1234 126 1234 126 1140.5 74.5 c 128,-1,8
 1047 23 1047 23 921.5 -2 c 128,-1,9
 796 -27 796 -27 655 -27 c 0,10,11
 554 -27 554 -27 473 -19.5 c 128,-1,12
 392 -12 392 -12 324 2 c 128,-1,13
 256 16 256 16 197 35.5 c 128,-1,14
 138 55 138 55 82 78 c 1,15,-1
 82 223 l 1,16,17
 207 149 207 149 340 115.5 c 128,-1,18
 473 82 473 82 625 82 c 0,19,20
 778 82 778 82 889.5 104.5 c 128,-1,21
 1001 127 1001 127 1073.5 167.5 c 128,-1,22
 1146 208 1146 208 1181.5 265 c 128,-1,23
 1217 322 1217 322 1217 391 c 0,24,25
 1217 540 1217 540 1036.5 608 c 128,-1,26
 856 676 856 676 483 678 c 1,27,-1
 483 786 l 1,28,29
 823 786 823 786 995 845.5 c 128,-1,30
 1167 905 1167 905 1167 1036 c 0,31,32
 1167 1158 1167 1158 1029.5 1225 c 128,-1,33
 892 1292 892 1292 625 1292 c 0,34,35
 547 1292 547 1292 479.5 1284 c 128,-1,36
 412 1276 412 1276 350 1260 c 128,-1,37
 288 1244 288 1244 229 1221 c 128,-1,38
 170 1198 170 1198 109 1167 c 1,39,-1
 109 1311 l 1,40,41
 176 1333 176 1333 240 1349.5 c 128,-1,42
 304 1366 304 1366 369 1377 c 128,-1,43
 434 1388 434 1388 502 1393.5 c 128,-1,44
 570 1399 570 1399 645 1399 c 0,45,46
 729 1399 729 1399 809.5 1391 c 128,-1,47
 890 1383 890 1383 962 1365.5 c 128,-1,48
 1034 1348 1034 1348 1094.5 1320.5 c 128,-1,49
 1155 1293 1155 1293 1199 1253.5 c 128,-1,50
 1243 1214 1243 1214 1267.5 1162 c 128,-1,51
 1292 1110 1292 1110 1292 1044 c 0,52,53
 1292 991 1292 991 1266.5 941 c 128,-1,54
 1241 891 1241 891 1189.5 849 c 128,-1,55
 1138 807 1138 807 1060.5 776.5 c 128,-1,56
 983 746 983 746 879 733 c 1,0,1
EndSplineSet
EndChar

StartChar: four
Encoding: 52 52 5
Width: 1575
Flags: W
LayerCount: 2
Fore
SplineSet
1161 352 m 1,0,-1
 1161 0 l 1,1,-1
 1038 0 l 1,2,-1
 1038 352 l 1,3,-1
 61 352 l 1,4,-1
 61 463 l 1,5,-1
 950 1374 l 1,6,-1
 1161 1374 l 1,7,-1
 1161 467 l 1,8,-1
 1513 467 l 1,9,-1
 1513 352 l 1,10,-1
 1161 352 l 1,0,-1
1038 1300 m 1,11,-1
 225 467 l 1,12,-1
 1038 467 l 1,13,-1
 1038 1300 l 1,11,-1
EndSplineSet
EndChar

StartChar: five
Encoding: 53 53 6
Width: 1513
Flags: W
LayerCount: 2
Fore
SplineSet
1274 1260 m 1,0,-1
 299 1260 l 1,1,-1
 299 799 l 1,2,3
 331 804 331 804 369.5 810 c 128,-1,4
 408 816 408 816 454.5 820.5 c 128,-1,5
 501 825 501 825 557.5 828 c 128,-1,6
 614 831 614 831 682 831 c 0,7,8
 1032 831 1032 831 1211.5 719 c 128,-1,9
 1391 607 1391 607 1391 401 c 0,10,11
 1391 298 1391 298 1342 218.5 c 128,-1,12
 1293 139 1293 139 1200 84.5 c 128,-1,13
 1107 30 1107 30 971.5 1.5 c 128,-1,14
 836 -27 836 -27 664 -27 c 0,15,16
 584 -27 584 -27 507.5 -19 c 128,-1,17
 431 -11 431 -11 362 2.5 c 128,-1,18
 293 16 293 16 232 33.5 c 128,-1,19
 171 51 171 51 123 70 c 1,20,-1
 123 209 l 1,21,22
 166 186 166 186 222 163 c 128,-1,23
 278 140 278 140 346.5 122 c 128,-1,24
 415 104 415 104 494.5 93 c 128,-1,25
 574 82 574 82 664 82 c 0,26,27
 806 82 806 82 918 103 c 128,-1,28
 1030 124 1030 124 1107.5 165 c 128,-1,29
 1185 206 1185 206 1225.5 265 c 128,-1,30
 1266 324 1266 324 1266 401 c 0,31,32
 1266 489 1266 489 1220.5 550 c 128,-1,33
 1175 611 1175 611 1093.5 649.5 c 128,-1,34
 1012 688 1012 688 898 705.5 c 128,-1,35
 784 723 784 723 647 723 c 0,36,37
 576 723 576 723 515.5 718 c 128,-1,38
 455 713 455 713 402.5 704.5 c 128,-1,39
 350 696 350 696 304.5 685 c 128,-1,40
 259 674 259 674 217 662 c 1,41,-1
 178 662 l 1,42,-1
 178 1374 l 1,43,-1
 1274 1374 l 1,44,-1
 1274 1260 l 1,0,-1
EndSplineSet
EndChar

StartChar: six
Encoding: 54 54 7
Width: 1583
Flags: W
LayerCount: 2
Fore
SplineSet
922 1290 m 0,0,1
 791 1290 791 1290 691 1267 c 128,-1,2
 591 1244 591 1244 518 1202.5 c 128,-1,3
 445 1161 445 1161 396 1103.5 c 128,-1,4
 347 1046 347 1046 317.5 976.5 c 128,-1,5
 288 907 288 907 275 828.5 c 128,-1,6
 262 750 262 750 262 666 c 1,7,8
 303 694 303 694 360 730.5 c 128,-1,9
 417 767 417 767 493 799.5 c 128,-1,10
 569 832 569 832 663.5 854.5 c 128,-1,11
 758 877 758 877 874 877 c 0,12,13
 1007 877 1007 877 1121.5 849 c 128,-1,14
 1236 821 1236 821 1320 765 c 128,-1,15
 1404 709 1404 709 1451.5 624.5 c 128,-1,16
 1499 540 1499 540 1499 426 c 0,17,18
 1499 332 1499 332 1456 249.5 c 128,-1,19
 1413 167 1413 167 1330.5 105.5 c 128,-1,20
 1248 44 1248 44 1127.5 8.5 c 128,-1,21
 1007 -27 1007 -27 852 -27 c 256,22,23
 697 -27 697 -27 565 14.5 c 128,-1,24
 433 56 433 56 337 139.5 c 128,-1,25
 241 223 241 223 187 349 c 128,-1,26
 133 475 133 475 133 645 c 0,27,28
 133 812 133 812 180.5 950.5 c 128,-1,29
 228 1089 228 1089 326 1189 c 128,-1,30
 424 1289 424 1289 574 1344 c 128,-1,31
 724 1399 724 1399 928 1399 c 0,32,33
 983 1399 983 1399 1040 1393 c 128,-1,34
 1097 1387 1097 1387 1152 1377.5 c 128,-1,35
 1207 1368 1207 1368 1259.5 1355 c 128,-1,36
 1312 1342 1312 1342 1358 1327 c 1,37,-1
 1358 1194 l 1,38,39
 1325 1209 1325 1209 1280.5 1225.5 c 128,-1,40
 1236 1242 1236 1242 1181 1256.5 c 128,-1,41
 1126 1271 1126 1271 1061 1280.5 c 128,-1,42
 996 1290 996 1290 922 1290 c 0,0,1
836 768 m 0,43,44
 731 768 731 768 644 742.5 c 128,-1,45
 557 717 557 717 486.5 680 c 128,-1,46
 416 643 416 643 361.5 602.5 c 128,-1,47
 307 562 307 562 268 532 c 1,48,49
 280 448 280 448 313.5 367.5 c 128,-1,50
 347 287 347 287 413.5 223.5 c 128,-1,51
 480 160 480 160 585.5 121 c 128,-1,52
 691 82 691 82 846 82 c 0,53,54
 975 82 975 82 1073.5 106.5 c 128,-1,55
 1172 131 1172 131 1239 176 c 128,-1,56
 1306 221 1306 221 1340 284.5 c 128,-1,57
 1374 348 1374 348 1374 426 c 0,58,59
 1374 505 1374 505 1342.5 568.5 c 128,-1,60
 1311 632 1311 632 1245 676 c 128,-1,61
 1179 720 1179 720 1077.5 744 c 128,-1,62
 976 768 976 768 836 768 c 0,43,44
EndSplineSet
EndChar

StartChar: seven
Encoding: 55 55 8
Width: 1372
Flags: W
LayerCount: 2
Fore
SplineSet
487 0 m 1,0,-1
 340 0 l 1,1,-1
 1139 1260 l 1,2,-1
 0 1260 l 1,3,-1
 0 1374 l 1,4,-1
 1311 1374 l 1,5,-1
 1311 1305 l 1,6,-1
 487 0 l 1,0,-1
EndSplineSet
EndChar

StartChar: eight
Encoding: 56 56 9
Width: 1626
Flags: W
LayerCount: 2
Fore
SplineSet
1047 752 m 1,0,1
 1164 717 1164 717 1251.5 678 c 128,-1,2
 1339 639 1339 639 1398 592 c 128,-1,3
 1457 545 1457 545 1486.5 488.5 c 128,-1,4
 1516 432 1516 432 1516 362 c 0,5,6
 1516 271 1516 271 1464 199 c 128,-1,7
 1412 127 1412 127 1319 76.5 c 128,-1,8
 1226 26 1226 26 1096.5 -0.5 c 128,-1,9
 967 -27 967 -27 813 -27 c 256,10,11
 659 -27 659 -27 530 -3 c 128,-1,12
 401 21 401 21 308 68.5 c 128,-1,13
 215 116 215 116 163 185.5 c 128,-1,14
 111 255 111 255 111 346 c 0,15,16
 111 416 111 416 141 475 c 0,17,18
 186 563 186 563 295.5 628 c 128,-1,19
 405 693 405 693 582 745 c 1,20,21
 514 768 514 768 454 793 c 128,-1,22
 394 818 394 818 346 850 c 0,23,24
 298 881 298 881 266 922 c 0,25,26
 243 951 243 951 230 986.5 c 128,-1,27
 217 1022 217 1022 217 1065 c 0,28,29
 217 1143 217 1143 260 1204.5 c 128,-1,30
 303 1266 303 1266 381 1309.5 c 128,-1,31
 459 1353 459 1353 569 1376 c 128,-1,32
 679 1399 679 1399 813 1399 c 0,33,34
 1034 1399 1034 1399 1174.5 1345 c 128,-1,35
 1315 1291 1315 1291 1372 1200 c 0,36,37
 1391 1169 1391 1169 1401 1135.5 c 128,-1,38
 1411 1102 1411 1102 1411 1065 c 0,39,40
 1411 965 1411 965 1318.5 891 c 128,-1,41
 1226 817 1226 817 1047 752 c 1,0,1
1288 1063 m 256,42,43
 1288 1108 1288 1108 1263.5 1149 c 128,-1,44
 1239 1190 1239 1190 1183.5 1222 c 128,-1,45
 1128 1254 1128 1254 1038.5 1273 c 128,-1,46
 949 1292 949 1292 819 1292 c 256,47,48
 689 1292 689 1292 597.5 1273 c 128,-1,49
 506 1254 506 1254 448 1222 c 128,-1,50
 390 1190 390 1190 364 1149 c 128,-1,51
 338 1108 338 1108 340 1063 c 0,52,53
 342 972 342 972 462 904.5 c 128,-1,54
 582 837 582 837 821 797 c 1,55,56
 932 819 932 819 1019 846.5 c 128,-1,57
 1106 874 1106 874 1166 907 c 128,-1,58
 1226 940 1226 940 1257 979 c 128,-1,59
 1288 1018 1288 1018 1288 1063 c 256,42,43
811 696 m 1,60,61
 686 675 686 675 580.5 643 c 128,-1,62
 475 611 475 611 399 568 c 128,-1,63
 323 525 323 525 280.5 472 c 128,-1,64
 238 419 238 419 238 358 c 0,65,66
 238 302 238 302 275 251.5 c 128,-1,67
 312 201 312 201 385 163 c 128,-1,68
 458 125 458 125 565 102.5 c 128,-1,69
 672 80 672 80 813 80 c 256,70,71
 954 80 954 80 1061.5 102 c 128,-1,72
 1169 124 1169 124 1241.5 162 c 128,-1,73
 1314 200 1314 200 1351.5 250.5 c 128,-1,74
 1389 301 1389 301 1389 358 c 0,75,76
 1389 419 1389 419 1345.5 472 c 128,-1,77
 1302 525 1302 525 1225 568 c 128,-1,78
 1148 611 1148 611 1042 643 c 128,-1,79
 936 675 936 675 811 696 c 1,60,61
EndSplineSet
EndChar

StartChar: nine
Encoding: 57 57 10
Width: 1591
Flags: W
LayerCount: 2
Fore
SplineSet
670 82 m 0,0,1
 801 82 801 82 900.5 105 c 128,-1,2
 1000 128 1000 128 1073 170 c 128,-1,3
 1146 212 1146 212 1195 271 c 128,-1,4
 1244 330 1244 330 1273.5 401 c 128,-1,5
 1303 472 1303 472 1315.5 553.5 c 128,-1,6
 1328 635 1328 635 1329 723 c 1,7,8
 1285 685 1285 685 1229 645 c 128,-1,9
 1173 605 1173 605 1099 572 c 128,-1,10
 1025 539 1025 539 931 517.5 c 128,-1,11
 837 496 837 496 717 496 c 0,12,13
 584 496 584 496 469.5 523.5 c 128,-1,14
 355 551 355 551 271 607 c 128,-1,15
 187 663 187 663 139.5 747.5 c 128,-1,16
 92 832 92 832 92 946 c 0,17,18
 92 1040 92 1040 135 1122.5 c 128,-1,19
 178 1205 178 1205 260.5 1266.5 c 128,-1,20
 343 1328 343 1328 463.5 1363.5 c 128,-1,21
 584 1399 584 1399 739 1399 c 256,22,23
 894 1399 894 1399 1026 1357.5 c 128,-1,24
 1158 1316 1158 1316 1254 1232.5 c 128,-1,25
 1350 1149 1350 1149 1404 1023 c 128,-1,26
 1458 897 1458 897 1458 727 c 0,27,28
 1458 560 1458 560 1410.5 421.5 c 128,-1,29
 1363 283 1363 283 1265 183.5 c 128,-1,30
 1167 84 1167 84 1017.5 28.5 c 128,-1,31
 868 -27 868 -27 664 -27 c 0,32,33
 602 -27 602 -27 541.5 -20.5 c 128,-1,34
 481 -14 481 -14 423 -3.5 c 128,-1,35
 365 7 365 7 312 20.5 c 128,-1,36
 259 34 259 34 213 49 c 1,37,-1
 213 182 l 1,38,39
 246 167 246 167 290.5 149.5 c 128,-1,40
 335 132 335 132 392 117 c 128,-1,41
 449 102 449 102 518.5 92 c 128,-1,42
 588 82 588 82 670 82 c 0,0,1
756 604 m 0,43,44
 860 604 860 604 946.5 628 c 128,-1,45
 1033 652 1033 652 1102.5 688.5 c 128,-1,46
 1172 725 1172 725 1226 768.5 c 128,-1,47
 1280 812 1280 812 1319 850 c 1,48,49
 1312 902 1312 902 1295.5 955 c 128,-1,50
 1279 1008 1279 1008 1249.5 1057 c 128,-1,51
 1220 1106 1220 1106 1176.5 1148.5 c 128,-1,52
 1133 1191 1133 1191 1071.5 1222.5 c 128,-1,53
 1010 1254 1010 1254 929 1272 c 128,-1,54
 848 1290 848 1290 745 1290 c 0,55,56
 616 1290 616 1290 517.5 1265.5 c 128,-1,57
 419 1241 419 1241 352 1196 c 128,-1,58
 285 1151 285 1151 251 1087.5 c 128,-1,59
 217 1024 217 1024 217 946 c 0,60,61
 217 867 217 867 248.5 803.5 c 128,-1,62
 280 740 280 740 346 696 c 128,-1,63
 412 652 412 652 513.5 628 c 128,-1,64
 615 604 615 604 756 604 c 0,43,44
EndSplineSet
EndChar

StartChar: A
Encoding: 65 65 11
Width: 1665
Flags: W
LayerCount: 2
Fore
SplineSet
1489 0 m 1,0,-1
 1300 362 l 1,1,-1
 367 362 l 1,2,-1
 178 0 l 1,3,-1
 41 0 l 1,4,-1
 760 1374 l 1,5,-1
 907 1374 l 1,6,-1
 1626 0 l 1,7,-1
 1489 0 l 1,0,-1
834 1253 m 1,8,-1
 428 477 l 1,9,-1
 1239 477 l 1,10,-1
 834 1253 l 1,8,-1
EndSplineSet
EndChar

StartChar: B
Encoding: 66 66 12
Width: 1714
Flags: W
LayerCount: 2
Fore
SplineSet
1593 379 m 0,0,1
 1593 299 1593 299 1572 240 c 128,-1,2
 1551 181 1551 181 1513.5 138.5 c 128,-1,3
 1476 96 1476 96 1423.5 69.5 c 128,-1,4
 1371 43 1371 43 1308 27.5 c 128,-1,5
 1245 12 1245 12 1173 6 c 128,-1,6
 1101 0 1101 0 1024 0 c 2,7,-1
 231 0 l 1,8,-1
 231 1374 l 1,9,-1
 1006 1374 l 2,10,11
 1065 1374 1065 1374 1124 1369 c 128,-1,12
 1183 1364 1183 1364 1237.5 1350.5 c 128,-1,13
 1292 1337 1292 1337 1338.5 1313 c 128,-1,14
 1385 1289 1385 1289 1419.5 1250 c 128,-1,15
 1454 1211 1454 1211 1473.5 1156 c 128,-1,16
 1493 1101 1493 1101 1493 1026 c 0,17,18
 1493 959 1493 959 1476.5 910 c 128,-1,19
 1460 861 1460 861 1426.5 826 c 128,-1,20
 1393 791 1393 791 1341 768.5 c 128,-1,21
 1289 746 1289 746 1219 733 c 1,22,23
 1319 726 1319 726 1390 699 c 128,-1,24
 1461 672 1461 672 1506 627 c 128,-1,25
 1551 582 1551 582 1572 519.5 c 128,-1,26
 1593 457 1593 457 1593 379 c 0,0,1
1376 1024 m 0,27,28
 1376 1053 1376 1053 1372 1082 c 128,-1,29
 1368 1111 1368 1111 1354 1137.5 c 128,-1,30
 1340 1164 1340 1164 1313.5 1187 c 128,-1,31
 1287 1210 1287 1210 1241 1226.5 c 128,-1,32
 1195 1243 1195 1243 1127.5 1252.5 c 128,-1,33
 1060 1262 1060 1262 965 1262 c 2,34,-1
 356 1262 l 1,35,-1
 356 782 l 1,36,-1
 965 782 l 2,37,38
 1100 782 1100 782 1181 801.5 c 128,-1,39
 1262 821 1262 821 1305.5 854 c 128,-1,40
 1349 887 1349 887 1362.5 931 c 128,-1,41
 1376 975 1376 975 1376 1024 c 0,27,28
1462 381 m 0,42,43
 1462 459 1462 459 1435 514 c 128,-1,44
 1408 569 1408 569 1352 604 c 128,-1,45
 1296 639 1296 639 1208 655.5 c 128,-1,46
 1120 672 1120 672 999 672 c 2,47,-1
 356 672 l 1,48,-1
 356 113 l 1,49,-1
 1016 113 l 2,50,51
 1141 113 1141 113 1226.5 127.5 c 128,-1,52
 1312 142 1312 142 1364.5 174.5 c 128,-1,53
 1417 207 1417 207 1439.5 258 c 128,-1,54
 1462 309 1462 309 1462 381 c 0,42,43
EndSplineSet
EndChar

StartChar: C
Encoding: 67 67 13
Width: 1780
Flags: W
LayerCount: 2
Fore
SplineSet
1640 109 m 1,0,1
 1568 79 1568 79 1497.5 54 c 128,-1,2
 1427 29 1427 29 1351 11 c 128,-1,3
 1275 -7 1275 -7 1191 -17 c 128,-1,4
 1107 -27 1107 -27 1008 -27 c 0,5,6
 886 -27 886 -27 773.5 -7 c 128,-1,7
 661 13 661 13 564 53 c 128,-1,8
 467 93 467 93 388 152.5 c 128,-1,9
 309 212 309 212 252.5 291 c 128,-1,10
 196 370 196 370 165.5 469 c 128,-1,11
 135 568 135 568 135 686 c 256,12,13
 135 804 135 804 165.5 903 c 128,-1,14
 196 1002 196 1002 252.5 1081 c 128,-1,15
 309 1160 309 1160 388 1219.5 c 128,-1,16
 467 1279 467 1279 564 1319 c 128,-1,17
 661 1359 661 1359 773 1379 c 128,-1,18
 885 1399 885 1399 1008 1399 c 0,19,20
 1107 1399 1107 1399 1191 1389 c 128,-1,21
 1275 1379 1275 1379 1351 1361 c 128,-1,22
 1427 1343 1427 1343 1497.5 1318.5 c 128,-1,23
 1568 1294 1568 1294 1640 1264 c 1,24,-1
 1640 1114 l 1,25,26
 1583 1150 1583 1150 1518 1182 c 128,-1,27
 1453 1214 1453 1214 1377.5 1238 c 128,-1,28
 1302 1262 1302 1262 1216 1276 c 128,-1,29
 1130 1290 1130 1290 1032 1290 c 0,30,31
 834 1290 834 1290 689 1247 c 128,-1,32
 544 1204 544 1204 449.5 1125.5 c 128,-1,33
 355 1047 355 1047 309.5 935.5 c 128,-1,34
 264 824 264 824 264 686 c 256,35,36
 264 548 264 548 309.5 437 c 128,-1,37
 355 326 355 326 449.5 247.5 c 128,-1,38
 544 169 544 169 689 126.5 c 128,-1,39
 834 84 834 84 1032 84 c 0,40,41
 1130 84 1130 84 1217.5 98 c 128,-1,42
 1305 112 1305 112 1381.5 136 c 128,-1,43
 1458 160 1458 160 1522.5 191.5 c 128,-1,44
 1587 223 1587 223 1640 258 c 1,45,-1
 1640 109 l 1,46,-1
 1640 109 l 1,0,1
EndSplineSet
EndChar

StartChar: D
Encoding: 68 68 14
Width: 1864
Flags: W
LayerCount: 2
Fore
SplineSet
1731 688 m 0,0,1
 1731 556 1731 556 1703.5 453.5 c 128,-1,2
 1676 351 1676 351 1626 275 c 128,-1,3
 1576 199 1576 199 1504.5 146 c 128,-1,4
 1433 93 1433 93 1345.5 61 c 128,-1,5
 1258 29 1258 29 1155.5 14.5 c 128,-1,6
 1053 0 1053 0 940 0 c 2,7,-1
 231 0 l 1,8,-1
 231 1374 l 1,9,-1
 938 1374 l 2,10,11
 1107 1374 1107 1374 1252 1341 c 128,-1,12
 1397 1308 1397 1308 1503.5 1228.5 c 128,-1,13
 1610 1149 1610 1149 1670.5 1017 c 128,-1,14
 1731 885 1731 885 1731 688 c 0,0,1
1602 688 m 0,15,16
 1602 800 1602 800 1580 886 c 128,-1,17
 1558 972 1558 972 1517 1035.5 c 128,-1,18
 1476 1099 1476 1099 1417 1142 c 128,-1,19
 1358 1185 1358 1185 1284 1211.5 c 128,-1,20
 1210 1238 1210 1238 1123 1249 c 128,-1,21
 1036 1260 1036 1260 938 1260 c 2,22,-1
 356 1260 l 1,23,-1
 356 115 l 1,24,-1
 938 115 l 2,25,26
 1085 115 1085 115 1207 141.5 c 128,-1,27
 1329 168 1329 168 1416.5 233.5 c 128,-1,28
 1504 299 1504 299 1553 409.5 c 128,-1,29
 1602 520 1602 520 1602 688 c 0,15,16
EndSplineSet
EndChar

StartChar: E
Encoding: 69 69 15
Width: 1546
Flags: W
LayerCount: 2
Fore
SplineSet
231 0 m 1,0,-1
 231 1374 l 1,1,-1
 1376 1374 l 1,2,-1
 1376 1257 l 1,3,-1
 367 1257 l 1,4,-1
 367 784 l 1,5,-1
 1325 784 l 1,6,-1
 1325 668 l 1,7,-1
 367 668 l 1,8,-1
 367 117 l 1,9,-1
 1391 117 l 1,10,-1
 1391 0 l 1,11,-1
 231 0 l 1,0,-1
EndSplineSet
EndChar

StartChar: F
Encoding: 70 70 16
Width: 1409
Flags: W
LayerCount: 2
Fore
SplineSet
356 1257 m 1,0,-1
 356 784 l 1,1,-1
 1270 784 l 1,2,-1
 1270 668 l 1,3,-1
 356 668 l 1,4,-1
 356 0 l 1,5,-1
 231 0 l 1,6,-1
 231 1374 l 1,7,-1
 1319 1374 l 1,8,-1
 1319 1257 l 1,9,-1
 356 1257 l 1,0,-1
EndSplineSet
EndChar

StartChar: G
Encoding: 71 71 17
Width: 1864
Flags: W
LayerCount: 2
Fore
SplineSet
1040 1399 m 0,0,1
 1135 1399 1135 1399 1217 1389.5 c 128,-1,2
 1299 1380 1299 1380 1374 1362.5 c 128,-1,3
 1449 1345 1449 1345 1520 1320.5 c 128,-1,4
 1591 1296 1591 1296 1663 1266 c 1,5,-1
 1663 1114 l 1,6,7
 1606 1150 1606 1150 1541.5 1182 c 128,-1,8
 1477 1214 1477 1214 1402.5 1238 c 128,-1,9
 1328 1262 1328 1262 1242.5 1276 c 128,-1,10
 1157 1290 1157 1290 1059 1290 c 0,11,12
 859 1290 859 1290 710 1248 c 128,-1,13
 561 1206 561 1206 462 1128 c 128,-1,14
 363 1050 363 1050 313.5 938 c 128,-1,15
 264 826 264 826 264 686 c 0,16,17
 264 555 264 555 312.5 444.5 c 128,-1,18
 361 334 361 334 459.5 254 c 128,-1,19
 558 174 558 174 706 129 c 128,-1,20
 854 84 854 84 1053 84 c 0,21,22
 1131 84 1131 84 1207.5 90 c 128,-1,23
 1284 96 1284 96 1352 105.5 c 128,-1,24
 1420 115 1420 115 1476 126.5 c 128,-1,25
 1532 138 1532 138 1571 150 c 1,26,-1
 1571 567 l 1,27,-1
 1012 567 l 1,28,-1
 1012 684 l 1,29,-1
 1696 684 l 1,30,-1
 1696 80 l 1,31,32
 1622 54 1622 54 1546.5 34 c 128,-1,33
 1471 14 1471 14 1390.5 0.5 c 128,-1,34
 1310 -13 1310 -13 1223.5 -20 c 128,-1,35
 1137 -27 1137 -27 1042 -27 c 0,36,37
 848 -27 848 -27 682 16.5 c 128,-1,38
 516 60 516 60 394.5 148.5 c 128,-1,39
 273 237 273 237 204 371 c 128,-1,40
 135 505 135 505 135 686 c 0,41,42
 135 807 135 807 167 906.5 c 128,-1,43
 199 1006 199 1006 257.5 1085.5 c 128,-1,44
 316 1165 316 1165 398.5 1224 c 128,-1,45
 481 1283 481 1283 581.5 1321.5 c 128,-1,46
 682 1360 682 1360 798 1379.5 c 128,-1,47
 914 1399 914 1399 1040 1399 c 0,0,1
EndSplineSet
EndChar

StartChar: H
Encoding: 72 72 18
Width: 1944
Flags: W
LayerCount: 2
Fore
SplineSet
1587 0 m 1,0,-1
 1587 666 l 1,1,-1
 356 666 l 1,2,-1
 356 0 l 1,3,-1
 231 0 l 1,4,-1
 231 1374 l 1,5,-1
 356 1374 l 1,6,-1
 356 782 l 1,7,-1
 1587 782 l 1,8,-1
 1587 1374 l 1,9,-1
 1712 1374 l 1,10,-1
 1712 0 l 1,11,-1
 1587 0 l 1,0,-1
EndSplineSet
EndChar

StartChar: I
Encoding: 73 73 19
Width: 588
Flags: W
LayerCount: 2
Fore
SplineSet
231 0 m 1,0,-1
 231 1374 l 1,1,-1
 356 1374 l 1,2,-1
 356 0 l 1,3,-1
 231 0 l 1,0,-1
EndSplineSet
EndChar

StartChar: J
Encoding: 74 74 20
Width: 1210
Flags: W
LayerCount: 2
Fore
SplineSet
985 440 m 2,0,1
 985 326 985 326 945 240.5 c 128,-1,2
 905 155 905 155 833 98 c 128,-1,3
 761 41 761 41 661 12.5 c 128,-1,4
 561 -16 561 -16 440 -16 c 0,5,6
 365 -16 365 -16 302 -9.5 c 128,-1,7
 239 -3 239 -3 185.5 7 c 128,-1,8
 132 17 132 17 86.5 28.5 c 128,-1,9
 41 40 41 40 0 51 c 1,10,-1
 0 180 l 1,11,12
 42 164 42 164 87 149 c 128,-1,13
 132 134 132 134 188 122 c 128,-1,14
 244 110 244 110 313.5 103 c 128,-1,15
 383 96 383 96 473 96 c 0,16,17
 554 96 554 96 624.5 118.5 c 128,-1,18
 695 141 695 141 747.5 184.5 c 128,-1,19
 800 228 800 228 830 290.5 c 128,-1,20
 860 353 860 353 860 434 c 2,21,-1
 860 1374 l 1,22,-1
 985 1374 l 1,23,-1
 985 440 l 2,0,1
EndSplineSet
EndChar

StartChar: K
Encoding: 75 75 21
Width: 1651
Flags: W
LayerCount: 2
Fore
SplineSet
358 727 m 1,0,-1
 1380 1374 l 1,1,-1
 1554 1374 l 1,2,-1
 547 715 l 1,3,-1
 1616 0 l 1,4,-1
 1403 0 l 1,5,-1
 358 700 l 1,6,-1
 358 0 l 1,7,-1
 231 0 l 1,8,-1
 231 1374 l 1,9,-1
 358 1374 l 1,10,-1
 358 727 l 1,0,-1
EndSplineSet
EndChar

StartChar: L
Encoding: 76 76 22
Width: 1436
Flags: W
LayerCount: 2
Fore
SplineSet
231 0 m 1,0,-1
 231 1374 l 1,1,-1
 356 1374 l 1,2,-1
 356 117 l 1,3,-1
 1360 117 l 1,4,-1
 1360 0 l 1,5,-1
 231 0 l 1,0,-1
EndSplineSet
EndChar

StartChar: M
Encoding: 77 77 23
Width: 2333
Flags: W
LayerCount: 2
Fore
SplineSet
1978 0 m 1,0,-1
 1978 1169 l 1,1,-1
 1223 0 l 1,2,-1
 1112 0 l 1,3,-1
 356 1174 l 1,4,-1
 356 0 l 1,5,-1
 231 0 l 1,6,-1
 231 1374 l 1,7,-1
 365 1374 l 1,8,-1
 1171 129 l 1,9,-1
 1968 1374 l 1,10,-1
 2101 1374 l 1,11,-1
 2101 0 l 1,12,-1
 1978 0 l 1,0,-1
EndSplineSet
EndChar

StartChar: N
Encoding: 78 78 24
Width: 1917
Flags: W
LayerCount: 2
Fore
SplineSet
1550 0 m 1,0,-1
 356 1210 l 1,1,-1
 356 0 l 1,2,-1
 231 0 l 1,3,-1
 231 1374 l 1,4,-1
 369 1374 l 1,5,-1
 1563 160 l 1,6,-1
 1563 1374 l 1,7,-1
 1686 1374 l 1,8,-1
 1686 0 l 1,9,-1
 1550 0 l 1,0,-1
EndSplineSet
EndChar

StartChar: O
Encoding: 79 79 25
Width: 2015
Flags: W
LayerCount: 2
Fore
SplineSet
1880 686 m 256,0,1
 1880 501 1880 501 1813 366.5 c 128,-1,2
 1746 232 1746 232 1629 144.5 c 128,-1,3
 1512 57 1512 57 1353 15 c 128,-1,4
 1194 -27 1194 -27 1010 -27 c 0,5,6
 825 -27 825 -27 665 15 c 128,-1,7
 505 57 505 57 387 144.5 c 128,-1,8
 269 232 269 232 202 366.5 c 128,-1,9
 135 501 135 501 135 686 c 0,10,11
 135 809 135 809 166 909.5 c 128,-1,12
 197 1010 197 1010 253 1089.5 c 128,-1,13
 309 1169 309 1169 388.5 1227 c 128,-1,14
 468 1285 468 1285 565.5 1323.5 c 128,-1,15
 663 1362 663 1362 775 1380.5 c 128,-1,16
 887 1399 887 1399 1010 1399 c 0,17,18
 1194 1399 1194 1399 1353 1357 c 128,-1,19
 1512 1315 1512 1315 1629 1227.5 c 128,-1,20
 1746 1140 1746 1140 1813 1005.5 c 128,-1,21
 1880 871 1880 871 1880 686 c 256,0,1
1751 686 m 256,22,23
 1751 832 1751 832 1703.5 944 c 128,-1,24
 1656 1056 1656 1056 1563 1132.5 c 128,-1,25
 1470 1209 1470 1209 1331.5 1248.5 c 128,-1,26
 1193 1288 1193 1288 1010 1288 c 256,27,28
 827 1288 827 1288 687.5 1248 c 128,-1,29
 548 1208 548 1208 454 1131.5 c 128,-1,30
 360 1055 360 1055 312 942.5 c 128,-1,31
 264 830 264 830 264 686 c 0,32,33
 264 540 264 540 312 428 c 128,-1,34
 360 316 360 316 454 239.5 c 128,-1,35
 548 163 548 163 687.5 123.5 c 128,-1,36
 827 84 827 84 1010 84 c 256,37,38
 1193 84 1193 84 1331.5 123.5 c 128,-1,39
 1470 163 1470 163 1563 239.5 c 128,-1,40
 1656 316 1656 316 1703.5 428 c 128,-1,41
 1751 540 1751 540 1751 686 c 256,22,23
EndSplineSet
EndChar

StartChar: P
Encoding: 80 80 26
Width: 1677
Flags: W
LayerCount: 2
Fore
SplineSet
1571 952 m 256,0,1
 1571 849 1571 849 1537.5 770 c 128,-1,2
 1504 691 1504 691 1432 637 c 128,-1,3
 1360 583 1360 583 1246.5 555.5 c 128,-1,4
 1133 528 1133 528 973 528 c 2,5,-1
 356 528 l 1,6,-1
 356 0 l 1,7,-1
 231 0 l 1,8,-1
 231 1374 l 1,9,-1
 973 1374 l 2,10,11
 1133 1374 1133 1374 1246.5 1346.5 c 128,-1,12
 1360 1319 1360 1319 1432 1266 c 128,-1,13
 1504 1213 1504 1213 1537.5 1134 c 128,-1,14
 1571 1055 1571 1055 1571 952 c 256,0,1
1442 952 m 0,15,16
 1442 1050 1442 1050 1409.5 1110 c 128,-1,17
 1377 1170 1377 1170 1309.5 1202.5 c 128,-1,18
 1242 1235 1242 1235 1138.5 1246 c 128,-1,19
 1035 1257 1035 1257 893 1257 c 2,20,-1
 356 1257 l 1,21,-1
 356 645 l 1,22,-1
 893 645 l 2,23,24
 948 645 948 645 1010.5 644.5 c 128,-1,25
 1073 644 1073 644 1134 650.5 c 128,-1,26
 1195 657 1195 657 1250.5 673.5 c 128,-1,27
 1306 690 1306 690 1348.5 724 c 128,-1,28
 1391 758 1391 758 1416.5 813 c 128,-1,29
 1442 868 1442 868 1442 952 c 0,15,16
EndSplineSet
EndChar

StartChar: Q
Encoding: 81 81 27
Width: 2015
Flags: W
LayerCount: 2
Fore
SplineSet
1880 686 m 0,0,1
 1880 512 1880 512 1821 384 c 128,-1,2
 1762 256 1762 256 1659 168 c 1,3,4
 1749 140 1749 140 1835.5 117 c 128,-1,5
 1922 94 1922 94 2003 80 c 1,6,-1
 1954 -45 l 1,7,8
 1857 -20 1857 -20 1750.5 16 c 128,-1,9
 1644 52 1644 52 1542 90 c 1,10,11
 1433 30 1433 30 1297.5 1.5 c 128,-1,12
 1162 -27 1162 -27 1010 -27 c 0,13,14
 825 -27 825 -27 665 15 c 128,-1,15
 505 57 505 57 387 144.5 c 128,-1,16
 269 232 269 232 202 366.5 c 128,-1,17
 135 501 135 501 135 686 c 0,18,19
 135 809 135 809 166 909.5 c 128,-1,20
 197 1010 197 1010 253 1089.5 c 128,-1,21
 309 1169 309 1169 388.5 1227 c 128,-1,22
 468 1285 468 1285 565.5 1323.5 c 128,-1,23
 663 1362 663 1362 775 1380.5 c 128,-1,24
 887 1399 887 1399 1010 1399 c 0,25,26
 1194 1399 1194 1399 1353 1357 c 128,-1,27
 1512 1315 1512 1315 1629 1227.5 c 128,-1,28
 1746 1140 1746 1140 1813 1005.5 c 128,-1,29
 1880 871 1880 871 1880 686 c 0,0,1
1751 686 m 0,30,31
 1751 832 1751 832 1703.5 944 c 128,-1,32
 1656 1056 1656 1056 1563 1132.5 c 128,-1,33
 1470 1209 1470 1209 1331.5 1248.5 c 128,-1,34
 1193 1288 1193 1288 1010 1288 c 256,35,36
 827 1288 827 1288 687.5 1248 c 128,-1,37
 548 1208 548 1208 454 1131.5 c 128,-1,38
 360 1055 360 1055 312 942.5 c 128,-1,39
 264 830 264 830 264 686 c 0,40,41
 264 540 264 540 312 428 c 128,-1,42
 360 316 360 316 454 239.5 c 128,-1,43
 548 163 548 163 687.5 123.5 c 128,-1,44
 827 84 827 84 1010 84 c 0,45,46
 1240 84 1240 84 1399 145 c 1,47,48
 1338 170 1338 170 1287 191.5 c 128,-1,49
 1236 213 1236 213 1198 230 c 0,50,51
 1154 249 1154 249 1118 266 c 1,52,-1
 1167 367 l 1,53,54
 1248 326 1248 326 1339.5 287 c 128,-1,55
 1431 248 1431 248 1530 213 c 1,56,57
 1639 290 1639 290 1695 408.5 c 128,-1,58
 1751 527 1751 527 1751 686 c 0,30,31
EndSplineSet
EndChar

StartChar: R
Encoding: 82 82 28
Width: 1706
Flags: W
LayerCount: 2
Fore
SplineSet
356 588 m 1,0,-1
 356 0 l 1,1,-1
 231 0 l 1,2,-1
 231 1374 l 1,3,-1
 915 1374 l 2,4,5
 1072 1374 1072 1374 1184 1349.5 c 128,-1,6
 1296 1325 1296 1325 1367.5 1275.5 c 128,-1,7
 1439 1226 1439 1226 1472 1152 c 128,-1,8
 1505 1078 1505 1078 1505 979 c 0,9,10
 1505 825 1505 825 1424 732.5 c 128,-1,11
 1343 640 1343 640 1163 606 c 1,12,-1
 1632 0 l 1,13,-1
 1475 0 l 1,14,-1
 1032 592 l 1,15,16
 1004 590 1004 590 975 589 c 128,-1,17
 946 588 946 588 915 588 c 2,18,-1
 356 588 l 1,0,-1
1376 979 m 0,19,20
 1376 1067 1376 1067 1345 1121.5 c 128,-1,21
 1314 1176 1314 1176 1244 1206 c 128,-1,22
 1174 1236 1174 1236 1060.5 1246.5 c 128,-1,23
 947 1257 947 1257 782 1257 c 2,24,-1
 356 1257 l 1,25,-1
 356 705 l 1,26,-1
 778 705 l 2,27,28
 943 705 943 705 1057 714.5 c 128,-1,29
 1171 724 1171 724 1242 753.5 c 128,-1,30
 1313 783 1313 783 1344.5 836.5 c 128,-1,31
 1376 890 1376 890 1376 979 c 0,19,20
EndSplineSet
EndChar

StartChar: S
Encoding: 83 83 29
Width: 1612
Flags: W
LayerCount: 2
Fore
SplineSet
1341 1171 m 1,0,1
 1302 1190 1302 1190 1251 1211.5 c 128,-1,2
 1200 1233 1200 1233 1134.5 1250 c 128,-1,3
 1069 1267 1069 1267 987 1278.5 c 128,-1,4
 905 1290 905 1290 805 1290 c 0,5,6
 684 1290 684 1290 589.5 1276 c 128,-1,7
 495 1262 495 1262 429.5 1232.5 c 128,-1,8
 364 1203 364 1203 329.5 1158 c 128,-1,9
 295 1113 295 1113 295 1051 c 0,10,11
 295 999 295 999 327.5 960 c 128,-1,12
 360 921 360 921 415.5 891 c 128,-1,13
 471 861 471 861 545.5 836.5 c 128,-1,14
 620 812 620 812 703.5 790.5 c 128,-1,15
 787 769 787 769 875.5 747 c 128,-1,16
 964 725 964 725 1047.5 699.5 c 128,-1,17
 1131 674 1131 674 1205.5 642.5 c 128,-1,18
 1280 611 1280 611 1335.5 569 c 128,-1,19
 1391 527 1391 527 1423.5 473 c 128,-1,20
 1456 419 1456 419 1456 348 c 0,21,22
 1456 271 1456 271 1427 213.5 c 128,-1,23
 1398 156 1398 156 1348.5 114.5 c 128,-1,24
 1299 73 1299 73 1232.5 45.5 c 128,-1,25
 1166 18 1166 18 1090.5 2 c 128,-1,26
 1015 -14 1015 -14 934.5 -20.5 c 128,-1,27
 854 -27 854 -27 776 -27 c 0,28,29
 597 -27 597 -27 451.5 -1 c 128,-1,30
 306 25 306 25 174 70 c 1,31,-1
 174 223 l 1,32,33
 310 142 310 142 461.5 112 c 128,-1,34
 613 82 613 82 780 82 c 0,35,36
 898 82 898 82 998 96 c 128,-1,37
 1098 110 1098 110 1171 140.5 c 128,-1,38
 1244 171 1244 171 1284.5 220 c 128,-1,39
 1325 269 1325 269 1325 340 c 0,40,41
 1325 397 1325 397 1292.5 440 c 128,-1,42
 1260 483 1260 483 1204.5 515.5 c 128,-1,43
 1149 548 1149 548 1074.5 573 c 128,-1,44
 1000 598 1000 598 917 619.5 c 128,-1,45
 834 641 834 641 745.5 661.5 c 128,-1,46
 657 682 657 682 574 706 c 128,-1,47
 491 730 491 730 416.5 760 c 128,-1,48
 342 790 342 790 286.5 830.5 c 128,-1,49
 231 871 231 871 198.5 924 c 128,-1,50
 166 977 166 977 166 1047 c 0,51,52
 166 1116 166 1116 192 1169.5 c 128,-1,53
 218 1223 218 1223 263.5 1262 c 128,-1,54
 309 1301 309 1301 370 1327.5 c 128,-1,55
 431 1354 431 1354 500.5 1369.5 c 128,-1,56
 570 1385 570 1385 645 1392 c 128,-1,57
 720 1399 720 1399 793 1399 c 0,58,59
 873 1399 873 1399 944.5 1392 c 128,-1,60
 1016 1385 1016 1385 1082.5 1373.5 c 128,-1,61
 1149 1362 1149 1362 1212.5 1347 c 128,-1,62
 1276 1332 1276 1332 1341 1315 c 1,63,-1
 1341 1171 l 1,0,1
EndSplineSet
EndChar

StartChar: T
Encoding: 84 84 30
Width: 1452
Flags: W
LayerCount: 2
Fore
SplineSet
788 1260 m 1,0,-1
 788 0 l 1,1,-1
 664 0 l 1,2,-1
 664 1260 l 1,3,-1
 39 1260 l 1,4,-1
 39 1374 l 1,5,-1
 1413 1374 l 1,6,-1
 1413 1260 l 1,7,-1
 788 1260 l 1,0,-1
EndSplineSet
EndChar

StartChar: U
Encoding: 85 85 31
Width: 1825
Flags: W
LayerCount: 2
Fore
SplineSet
1606 432 m 1,0,1
 1606 329 1606 329 1562.5 244.5 c 128,-1,2
 1519 160 1519 160 1432.5 99.5 c 128,-1,3
 1346 39 1346 39 1216 6 c 128,-1,4
 1086 -27 1086 -27 913 -27 c 256,5,6
 740 -27 740 -27 610 6 c 128,-1,7
 480 39 480 39 393 99.5 c 128,-1,8
 306 160 306 160 262.5 244.5 c 128,-1,9
 219 329 219 329 219 432 c 2,10,-1
 219 1374 l 1,11,-1
 344 1374 l 1,12,-1
 344 422 l 2,13,14
 344 353 344 353 380.5 291.5 c 128,-1,15
 417 230 417 230 489 184 c 128,-1,16
 561 138 561 138 667 111 c 128,-1,17
 773 84 773 84 913 84 c 0,18,19
 1052 84 1052 84 1158 111 c 128,-1,20
 1264 138 1264 138 1336 184 c 128,-1,21
 1408 230 1408 230 1444.5 291.5 c 128,-1,22
 1481 353 1481 353 1481 422 c 2,23,-1
 1481 1374 l 1,24,-1
 1606 1374 l 1,25,-1
 1606 432 l 1,26,-1
 1606 432 l 1,0,1
EndSplineSet
EndChar

StartChar: V
Encoding: 86 86 32
Width: 1675
Flags: W
LayerCount: 2
Fore
SplineSet
928 0 m 1,0,-1
 741 0 l 1,1,-1
 55 1374 l 1,2,-1
 195 1374 l 1,3,-1
 838 86 l 1,4,-1
 1481 1374 l 1,5,-1
 1620 1374 l 1,6,-1
 928 0 l 1,0,-1
EndSplineSet
EndChar

StartChar: W
Encoding: 87 87 33
Width: 2593
Flags: W
LayerCount: 2
Fore
SplineSet
1380 1374 m 1,0,-1
 1870 100 l 1,1,-1
 2378 1374 l 1,2,-1
 2517 1374 l 1,3,-1
 1964 0 l 1,4,-1
 1778 0 l 1,5,-1
 1296 1241 l 1,6,-1
 815 0 l 1,7,-1
 629 0 l 1,8,-1
 76 1374 l 1,9,-1
 215 1374 l 1,10,-1
 723 100 l 1,11,-1
 1212 1374 l 1,12,-1
 1380 1374 l 1,0,-1
EndSplineSet
EndChar

StartChar: X
Encoding: 88 88 34
Width: 1683
Flags: W
LayerCount: 2
Fore
SplineSet
842 621 m 1,0,-1
 250 0 l 1,1,-1
 92 0 l 1,2,-1
 764 705 l 1,3,-1
 125 1374 l 1,4,-1
 283 1374 l 1,5,-1
 842 786 l 1,6,-1
 1403 1374 l 1,7,-1
 1561 1374 l 1,8,-1
 922 705 l 1,9,-1
 1593 0 l 1,10,-1
 1436 0 l 1,11,-1
 842 621 l 1,0,-1
EndSplineSet
EndChar

StartChar: Y
Encoding: 89 89 35
Width: 1563
Flags: W
LayerCount: 2
Fore
SplineSet
844 582 m 1,0,-1
 844 0 l 1,1,-1
 719 0 l 1,2,-1
 719 582 l 1,3,-1
 74 1374 l 1,4,-1
 223 1374 l 1,5,-1
 782 686 l 1,6,-1
 1339 1374 l 1,7,-1
 1489 1374 l 1,8,-1
 844 582 l 1,0,-1
EndSplineSet
EndChar

StartChar: Z
Encoding: 90 90 36
Width: 1491
Flags: W
LayerCount: 2
Fore
SplineSet
147 0 m 1,0,-1
 147 102 l 1,1,-1
 1143 1257 l 1,2,-1
 174 1257 l 1,3,-1
 174 1374 l 1,4,-1
 1337 1374 l 1,5,-1
 1337 1307 l 1,6,-1
 311 117 l 1,7,-1
 1358 117 l 1,8,-1
 1358 0 l 1,9,-1
 147 0 l 1,0,-1
EndSplineSet
EndChar

StartChar: a
Encoding: 97 97 37
Width: 1819
Flags: W
LayerCount: 2
Fore
SplineSet
1475 0 m 1,0,-1
 1475 152 l 1,1,2
 1403 113 1403 113 1311.5 80 c 128,-1,3
 1220 47 1220 47 1118.5 23 c 128,-1,4
 1017 -1 1017 -1 910 -14 c 128,-1,5
 803 -27 803 -27 700 -27 c 0,6,7
 566 -27 566 -27 459.5 -3 c 128,-1,8
 353 21 353 21 279 68.5 c 128,-1,9
 205 116 205 116 165 186.5 c 128,-1,10
 125 257 125 257 125 350 c 0,11,12
 125 442 125 442 171.5 512.5 c 128,-1,13
 218 583 218 583 304 635.5 c 128,-1,14
 390 688 390 688 511.5 724.5 c 128,-1,15
 633 761 633 761 783 786.5 c 128,-1,16
 933 812 933 812 1107.5 828.5 c 128,-1,17
 1282 845 1282 845 1475 856 c 1,18,-1
 1475 961 l 2,19,20
 1475 1025 1475 1025 1451 1074 c 128,-1,21
 1427 1123 1427 1123 1384 1159.5 c 128,-1,22
 1341 1196 1341 1196 1283 1220.5 c 128,-1,23
 1225 1245 1225 1245 1157.5 1260 c 128,-1,24
 1090 1275 1090 1275 1015.5 1281.5 c 128,-1,25
 941 1288 941 1288 866 1288 c 0,26,27
 765 1288 765 1288 682 1278 c 128,-1,28
 599 1268 599 1268 527 1250.5 c 128,-1,29
 455 1233 455 1233 389 1210 c 128,-1,30
 323 1187 323 1187 256 1161 c 1,31,-1
 256 1307 l 1,32,33
 395 1344 395 1344 552.5 1371.5 c 128,-1,34
 710 1399 710 1399 887 1399 c 0,35,36
 1037 1399 1037 1399 1167 1373.5 c 128,-1,37
 1297 1348 1297 1348 1393 1292 c 128,-1,38
 1489 1236 1489 1236 1544 1147.5 c 128,-1,39
 1599 1059 1599 1059 1599 932 c 2,40,-1
 1599 0 l 1,41,-1
 1475 0 l 1,0,-1
1475 745 m 1,42,43
 1148 727 1148 727 916.5 694 c 128,-1,44
 685 661 685 661 538 613 c 128,-1,45
 391 565 391 565 322.5 501 c 128,-1,46
 254 437 254 437 254 356 c 0,47,48
 254 290 254 290 287.5 239 c 128,-1,49
 321 188 321 188 384 153.5 c 128,-1,50
 447 119 447 119 537 101.5 c 128,-1,51
 627 84 627 84 739 84 c 0,52,53
 805 84 805 84 875.5 91.5 c 128,-1,54
 946 99 946 99 1016 112.5 c 128,-1,55
 1086 126 1086 126 1154 144.5 c 128,-1,56
 1222 163 1222 163 1282 185 c 128,-1,57
 1342 207 1342 207 1391.5 232 c 128,-1,58
 1441 257 1441 257 1475 283 c 1,59,-1
 1475 745 l 1,42,43
EndSplineSet
EndChar

StartChar: b
Encoding: 98 98 38
Width: 1714
Flags: W
LayerCount: 2
Fore
SplineSet
1593 379 m 0,0,1
 1593 299 1593 299 1572 240 c 128,-1,2
 1551 181 1551 181 1513.5 138.5 c 128,-1,3
 1476 96 1476 96 1423.5 69.5 c 128,-1,4
 1371 43 1371 43 1308 27.5 c 128,-1,5
 1245 12 1245 12 1173 6 c 128,-1,6
 1101 0 1101 0 1024 0 c 2,7,-1
 231 0 l 1,8,-1
 231 1374 l 1,9,-1
 1006 1374 l 2,10,11
 1065 1374 1065 1374 1124 1369 c 128,-1,12
 1183 1364 1183 1364 1237.5 1350.5 c 128,-1,13
 1292 1337 1292 1337 1338.5 1313 c 128,-1,14
 1385 1289 1385 1289 1419.5 1250 c 128,-1,15
 1454 1211 1454 1211 1473.5 1156 c 128,-1,16
 1493 1101 1493 1101 1493 1026 c 0,17,18
 1493 959 1493 959 1476.5 910 c 128,-1,19
 1460 861 1460 861 1426.5 826 c 128,-1,20
 1393 791 1393 791 1341 768.5 c 128,-1,21
 1289 746 1289 746 1219 733 c 1,22,23
 1319 726 1319 726 1390 699 c 128,-1,24
 1461 672 1461 672 1506 627 c 128,-1,25
 1551 582 1551 582 1572 519.5 c 128,-1,26
 1593 457 1593 457 1593 379 c 0,0,1
1376 1024 m 0,27,28
 1376 1053 1376 1053 1372 1082 c 128,-1,29
 1368 1111 1368 1111 1354 1137.5 c 128,-1,30
 1340 1164 1340 1164 1313.5 1187 c 128,-1,31
 1287 1210 1287 1210 1241 1226.5 c 128,-1,32
 1195 1243 1195 1243 1127.5 1252.5 c 128,-1,33
 1060 1262 1060 1262 965 1262 c 2,34,-1
 356 1262 l 1,35,-1
 356 782 l 1,36,-1
 965 782 l 2,37,38
 1100 782 1100 782 1181 801.5 c 128,-1,39
 1262 821 1262 821 1305.5 854 c 128,-1,40
 1349 887 1349 887 1362.5 931 c 128,-1,41
 1376 975 1376 975 1376 1024 c 0,27,28
1462 381 m 0,42,43
 1462 459 1462 459 1435 514 c 128,-1,44
 1408 569 1408 569 1352 604 c 128,-1,45
 1296 639 1296 639 1208 655.5 c 128,-1,46
 1120 672 1120 672 999 672 c 2,47,-1
 356 672 l 1,48,-1
 356 113 l 1,49,-1
 1016 113 l 2,50,51
 1141 113 1141 113 1226.5 127.5 c 128,-1,52
 1312 142 1312 142 1364.5 174.5 c 128,-1,53
 1417 207 1417 207 1439.5 258 c 128,-1,54
 1462 309 1462 309 1462 381 c 0,42,43
EndSplineSet
EndChar

StartChar: c
Encoding: 99 99 39
Width: 1780
Flags: W
LayerCount: 2
Fore
SplineSet
1640 109 m 1,0,1
 1568 79 1568 79 1497.5 54 c 128,-1,2
 1427 29 1427 29 1351 11 c 128,-1,3
 1275 -7 1275 -7 1191 -17 c 128,-1,4
 1107 -27 1107 -27 1008 -27 c 0,5,6
 886 -27 886 -27 773.5 -7 c 128,-1,7
 661 13 661 13 564 53 c 128,-1,8
 467 93 467 93 388 152.5 c 128,-1,9
 309 212 309 212 252.5 291 c 128,-1,10
 196 370 196 370 165.5 469 c 128,-1,11
 135 568 135 568 135 686 c 256,12,13
 135 804 135 804 165.5 903 c 128,-1,14
 196 1002 196 1002 252.5 1081 c 128,-1,15
 309 1160 309 1160 388 1219.5 c 128,-1,16
 467 1279 467 1279 564 1319 c 128,-1,17
 661 1359 661 1359 773 1379 c 128,-1,18
 885 1399 885 1399 1008 1399 c 0,19,20
 1107 1399 1107 1399 1191 1389 c 128,-1,21
 1275 1379 1275 1379 1351 1361 c 128,-1,22
 1427 1343 1427 1343 1497.5 1318.5 c 128,-1,23
 1568 1294 1568 1294 1640 1264 c 1,24,-1
 1640 1114 l 1,25,26
 1583 1150 1583 1150 1518 1182 c 128,-1,27
 1453 1214 1453 1214 1377.5 1238 c 128,-1,28
 1302 1262 1302 1262 1216 1276 c 128,-1,29
 1130 1290 1130 1290 1032 1290 c 0,30,31
 834 1290 834 1290 689 1247 c 128,-1,32
 544 1204 544 1204 449.5 1125.5 c 128,-1,33
 355 1047 355 1047 309.5 935.5 c 128,-1,34
 264 824 264 824 264 686 c 256,35,36
 264 548 264 548 309.5 437 c 128,-1,37
 355 326 355 326 449.5 247.5 c 128,-1,38
 544 169 544 169 689 126.5 c 128,-1,39
 834 84 834 84 1032 84 c 0,40,41
 1130 84 1130 84 1217.5 98 c 128,-1,42
 1305 112 1305 112 1381.5 136 c 128,-1,43
 1458 160 1458 160 1522.5 191.5 c 128,-1,44
 1587 223 1587 223 1640 258 c 1,45,-1
 1640 109 l 1,46,-1
 1640 109 l 1,0,1
EndSplineSet
EndChar

StartChar: d
Encoding: 100 100 40
Width: 1864
Flags: W
LayerCount: 2
Fore
SplineSet
1731 688 m 0,0,1
 1731 556 1731 556 1703.5 453.5 c 128,-1,2
 1676 351 1676 351 1626 275 c 128,-1,3
 1576 199 1576 199 1504.5 146 c 128,-1,4
 1433 93 1433 93 1345.5 61 c 128,-1,5
 1258 29 1258 29 1155.5 14.5 c 128,-1,6
 1053 0 1053 0 940 0 c 2,7,-1
 231 0 l 1,8,-1
 231 1374 l 1,9,-1
 938 1374 l 2,10,11
 1107 1374 1107 1374 1252 1341 c 128,-1,12
 1397 1308 1397 1308 1503.5 1228.5 c 128,-1,13
 1610 1149 1610 1149 1670.5 1017 c 128,-1,14
 1731 885 1731 885 1731 688 c 0,0,1
1602 688 m 0,15,16
 1602 800 1602 800 1580 886 c 128,-1,17
 1558 972 1558 972 1517 1035.5 c 128,-1,18
 1476 1099 1476 1099 1417 1142 c 128,-1,19
 1358 1185 1358 1185 1284 1211.5 c 128,-1,20
 1210 1238 1210 1238 1123 1249 c 128,-1,21
 1036 1260 1036 1260 938 1260 c 2,22,-1
 356 1260 l 1,23,-1
 356 115 l 1,24,-1
 938 115 l 2,25,26
 1085 115 1085 115 1207 141.5 c 128,-1,27
 1329 168 1329 168 1416.5 233.5 c 128,-1,28
 1504 299 1504 299 1553 409.5 c 128,-1,29
 1602 520 1602 520 1602 688 c 0,15,16
EndSplineSet
EndChar

StartChar: e
Encoding: 101 101 41
Width: 1864
Flags: W
LayerCount: 2
Fore
SplineSet
1616 72 m 1,0,1
 1532 46 1532 46 1460 27.5 c 128,-1,2
 1388 9 1388 9 1318 -2.5 c 128,-1,3
 1248 -14 1248 -14 1175.5 -19.5 c 128,-1,4
 1103 -25 1103 -25 1016 -25 c 0,5,6
 814 -25 814 -25 651 24 c 128,-1,7
 488 73 488 73 373.5 164.5 c 128,-1,8
 259 256 259 256 197 386 c 128,-1,9
 135 516 135 516 135 678 c 0,10,11
 135 835 135 835 194.5 966 c 128,-1,12
 254 1097 254 1097 361 1191 c 128,-1,13
 468 1285 468 1285 617 1337 c 128,-1,14
 766 1389 766 1389 946 1389 c 0,15,16
 1133 1389 1133 1389 1279 1339 c 128,-1,17
 1425 1289 1425 1289 1525 1196 c 128,-1,18
 1625 1103 1625 1103 1677 970.5 c 128,-1,19
 1729 838 1729 838 1729 672 c 2,20,-1
 1729 641 l 1,21,-1
 264 641 l 1,22,23
 275 513 275 513 328 410 c 128,-1,24
 381 307 381 307 478.5 235 c 128,-1,25
 576 163 576 163 718.5 124.5 c 128,-1,26
 861 86 861 86 1051 86 c 0,27,28
 1132 86 1132 86 1215 97 c 128,-1,29
 1298 108 1298 108 1374 126.5 c 128,-1,30
 1450 145 1450 145 1513 168.5 c 128,-1,31
 1576 192 1576 192 1616 217 c 1,32,-1
 1616 72 l 1,0,1
1606 750 m 1,33,34
 1599 855 1599 855 1559 950.5 c 128,-1,35
 1519 1046 1519 1046 1439.5 1119 c 128,-1,36
 1360 1192 1360 1192 1237.5 1235 c 128,-1,37
 1115 1278 1115 1278 944 1278 c 0,38,39
 783 1278 783 1278 662 1235 c 128,-1,40
 541 1192 541 1192 457 1119.5 c 128,-1,41
 373 1047 373 1047 325 951.5 c 128,-1,42
 277 856 277 856 264 750 c 1,43,-1
 1606 750 l 1,33,34
EndSplineSet
EndChar

StartChar: f
Encoding: 102 102 42
Width: 1675
Flags: W
LayerCount: 2
Fore
SplineSet
934 1257 m 2,0,1
 783 1257 783 1257 674 1236.5 c 128,-1,2
 565 1216 565 1216 494.5 1173 c 128,-1,3
 424 1130 424 1130 390 1063 c 128,-1,4
 356 996 356 996 356 903 c 2,5,-1
 356 750 l 1,6,-1
 1530 750 l 1,7,-1
 1530 633 l 1,8,-1
 356 633 l 1,9,-1
 356 0 l 1,10,-1
 231 0 l 1,11,-1
 231 924 l 2,12,13
 231 1030 231 1030 268.5 1114 c 128,-1,14
 306 1198 306 1198 388 1255.5 c 128,-1,15
 470 1313 470 1313 598.5 1343.5 c 128,-1,16
 727 1374 727 1374 909 1374 c 2,17,-1
 1550 1374 l 1,18,-1
 1550 1257 l 1,19,-1
 934 1257 l 2,0,1
EndSplineSet
EndChar

StartChar: g
Encoding: 103 103 43
Width: 1864
Flags: W
LayerCount: 2
Fore
SplineSet
1040 1399 m 0,0,1
 1135 1399 1135 1399 1217 1389.5 c 128,-1,2
 1299 1380 1299 1380 1374 1362.5 c 128,-1,3
 1449 1345 1449 1345 1520 1320.5 c 128,-1,4
 1591 1296 1591 1296 1663 1266 c 1,5,-1
 1663 1114 l 1,6,7
 1606 1150 1606 1150 1541.5 1182 c 128,-1,8
 1477 1214 1477 1214 1402.5 1238 c 128,-1,9
 1328 1262 1328 1262 1242.5 1276 c 128,-1,10
 1157 1290 1157 1290 1059 1290 c 0,11,12
 859 1290 859 1290 710 1248 c 128,-1,13
 561 1206 561 1206 462 1128 c 128,-1,14
 363 1050 363 1050 313.5 938 c 128,-1,15
 264 826 264 826 264 686 c 0,16,17
 264 555 264 555 312.5 444.5 c 128,-1,18
 361 334 361 334 459.5 254 c 128,-1,19
 558 174 558 174 706 129 c 128,-1,20
 854 84 854 84 1053 84 c 0,21,22
 1131 84 1131 84 1207.5 90 c 128,-1,23
 1284 96 1284 96 1352 105.5 c 128,-1,24
 1420 115 1420 115 1476 126.5 c 128,-1,25
 1532 138 1532 138 1571 150 c 1,26,-1
 1571 567 l 1,27,-1
 1012 567 l 1,28,-1
 1012 684 l 1,29,-1
 1696 684 l 1,30,-1
 1696 80 l 1,31,32
 1622 54 1622 54 1546.5 34 c 128,-1,33
 1471 14 1471 14 1390.5 0.5 c 128,-1,34
 1310 -13 1310 -13 1223.5 -20 c 128,-1,35
 1137 -27 1137 -27 1042 -27 c 0,36,37
 848 -27 848 -27 682 16.5 c 128,-1,38
 516 60 516 60 394.5 148.5 c 128,-1,39
 273 237 273 237 204 371 c 128,-1,40
 135 505 135 505 135 686 c 0,41,42
 135 807 135 807 167 906.5 c 128,-1,43
 199 1006 199 1006 257.5 1085.5 c 128,-1,44
 316 1165 316 1165 398.5 1224 c 128,-1,45
 481 1283 481 1283 581.5 1321.5 c 128,-1,46
 682 1360 682 1360 798 1379.5 c 128,-1,47
 914 1399 914 1399 1040 1399 c 0,0,1
EndSplineSet
EndChar

StartChar: h
Encoding: 104 104 44
Width: 1944
Flags: W
LayerCount: 2
Fore
SplineSet
1587 0 m 1,0,-1
 1587 666 l 1,1,-1
 356 666 l 1,2,-1
 356 0 l 1,3,-1
 231 0 l 1,4,-1
 231 1374 l 1,5,-1
 356 1374 l 1,6,-1
 356 782 l 1,7,-1
 1587 782 l 1,8,-1
 1587 1374 l 1,9,-1
 1712 1374 l 1,10,-1
 1712 0 l 1,11,-1
 1587 0 l 1,0,-1
EndSplineSet
EndChar

StartChar: i
Encoding: 105 105 45
Width: 588
Flags: W
LayerCount: 2
Fore
SplineSet
231 0 m 1,0,-1
 231 1374 l 1,1,-1
 356 1374 l 1,2,-1
 356 0 l 1,3,-1
 231 0 l 1,0,-1
EndSplineSet
EndChar

StartChar: j
Encoding: 106 106 46
Width: 1210
Flags: W
LayerCount: 2
Fore
SplineSet
985 440 m 2,0,1
 985 326 985 326 945 240.5 c 128,-1,2
 905 155 905 155 833 98 c 128,-1,3
 761 41 761 41 661 12.5 c 128,-1,4
 561 -16 561 -16 440 -16 c 0,5,6
 365 -16 365 -16 302 -9.5 c 128,-1,7
 239 -3 239 -3 185.5 7 c 128,-1,8
 132 17 132 17 86.5 28.5 c 128,-1,9
 41 40 41 40 0 51 c 1,10,-1
 0 180 l 1,11,12
 42 164 42 164 87 149 c 128,-1,13
 132 134 132 134 188 122 c 128,-1,14
 244 110 244 110 313.5 103 c 128,-1,15
 383 96 383 96 473 96 c 0,16,17
 554 96 554 96 624.5 118.5 c 128,-1,18
 695 141 695 141 747.5 184.5 c 128,-1,19
 800 228 800 228 830 290.5 c 128,-1,20
 860 353 860 353 860 434 c 2,21,-1
 860 1374 l 1,22,-1
 985 1374 l 1,23,-1
 985 440 l 2,0,1
EndSplineSet
EndChar

StartChar: k
Encoding: 107 107 47
Width: 1776
Flags: W
LayerCount: 2
Fore
SplineSet
1520 0 m 1,0,1
 1510 112 1510 112 1465 202.5 c 128,-1,2
 1420 293 1420 293 1349.5 363 c 128,-1,3
 1279 433 1279 433 1188 483.5 c 128,-1,4
 1097 534 1097 534 995 567 c 128,-1,5
 893 600 893 600 784 615.5 c 128,-1,6
 675 631 675 631 569 631 c 2,7,-1
 356 631 l 1,8,-1
 356 0 l 1,9,-1
 231 0 l 1,10,-1
 231 1374 l 1,11,-1
 356 1374 l 1,12,-1
 356 741 l 1,13,-1
 535 741 l 2,14,15
 642 741 642 741 748 760.5 c 128,-1,16
 854 780 854 780 950.5 817.5 c 128,-1,17
 1047 855 1047 855 1130.5 909.5 c 128,-1,18
 1214 964 1214 964 1278 1034.5 c 128,-1,19
 1342 1105 1342 1105 1383 1190 c 128,-1,20
 1424 1275 1424 1275 1434 1374 c 1,21,-1
 1563 1374 l 1,22,23
 1553 1265 1553 1265 1514.5 1176.5 c 128,-1,24
 1476 1088 1476 1088 1420 1017 c 128,-1,25
 1364 946 1364 946 1295 892.5 c 128,-1,26
 1226 839 1226 839 1155 800.5 c 128,-1,27
 1084 762 1084 762 1016 736.5 c 128,-1,28
 948 711 948 711 893 698 c 1,29,30
 962 687 962 687 1042.5 664.5 c 128,-1,31
 1123 642 1123 642 1203.5 604.5 c 128,-1,32
 1284 567 1284 567 1360 512.5 c 128,-1,33
 1436 458 1436 458 1496.5 384 c 128,-1,34
 1557 310 1557 310 1598 215 c 128,-1,35
 1639 120 1639 120 1649 0 c 1,36,-1
 1520 0 l 1,0,1
EndSplineSet
EndChar

StartChar: l
Encoding: 108 108 48
Width: 1454
Flags: W
LayerCount: 2
Fore
SplineSet
356 475 m 2,0,1
 356 382 356 382 371 315 c 128,-1,2
 386 248 386 248 434 205 c 128,-1,3
 482 162 482 162 572.5 141.5 c 128,-1,4
 663 121 663 121 813 121 c 2,5,-1
 1434 121 l 1,6,-1
 1434 0 l 1,7,-1
 788 0 l 2,8,9
 623 0 623 0 515.5 26.5 c 128,-1,10
 408 53 408 53 344.5 108.5 c 128,-1,11
 281 164 281 164 256 249 c 128,-1,12
 231 334 231 334 231 451 c 2,13,-1
 231 1374 l 1,14,-1
 356 1374 l 1,15,-1
 356 475 l 2,0,1
EndSplineSet
EndChar

StartChar: m
Encoding: 109 109 49
Width: 2552
Flags: W
LayerCount: 2
Fore
SplineSet
356 1374 m 1,0,-1
 356 1163 l 1,1,2
 400 1201 400 1201 454 1244 c 128,-1,3
 508 1287 508 1287 573 1323 c 128,-1,4
 638 1359 638 1359 714 1383 c 128,-1,5
 790 1407 790 1407 877 1407 c 0,6,7
 1016 1407 1016 1407 1123 1344.5 c 128,-1,8
 1230 1282 1230 1282 1296 1151 c 1,9,10
 1360 1210 1360 1210 1428 1257.5 c 128,-1,11
 1496 1305 1496 1305 1567.5 1338 c 128,-1,12
 1639 1371 1639 1371 1715 1389 c 128,-1,13
 1791 1407 1791 1407 1872 1407 c 0,14,15
 1975 1407 1975 1407 2059.5 1372 c 128,-1,16
 2144 1337 2144 1337 2203 1276 c 128,-1,17
 2262 1215 2262 1215 2294.5 1132.5 c 128,-1,18
 2327 1050 2327 1050 2327 956 c 2,19,-1
 2327 0 l 1,20,-1
 2202 0 l 1,21,-1
 2202 924 l 2,22,23
 2202 1010 2202 1010 2181.5 1077.5 c 128,-1,24
 2161 1145 2161 1145 2117.5 1192 c 128,-1,25
 2074 1239 2074 1239 2006.5 1263.5 c 128,-1,26
 1939 1288 1939 1288 1845 1288 c 0,27,28
 1770 1288 1770 1288 1696.5 1266.5 c 128,-1,29
 1623 1245 1623 1245 1556 1209.5 c 128,-1,30
 1489 1174 1489 1174 1431 1129 c 128,-1,31
 1373 1084 1373 1084 1329 1036 c 1,32,33
 1334 1008 1334 1008 1334.5 988 c 128,-1,34
 1335 968 1335 968 1335 940 c 2,35,-1
 1335 0 l 1,36,-1
 1210 0 l 1,37,-1
 1210 924 l 2,38,39
 1210 1026 1210 1026 1183 1095.5 c 128,-1,40
 1156 1165 1156 1165 1108 1208 c 128,-1,41
 1060 1251 1060 1251 994.5 1269.5 c 128,-1,42
 929 1288 929 1288 852 1288 c 0,43,44
 779 1288 779 1288 707.5 1263 c 128,-1,45
 636 1238 636 1238 571 1198 c 128,-1,46
 506 1158 506 1158 451 1108.5 c 128,-1,47
 396 1059 396 1059 356 1010 c 1,48,-1
 356 0 l 1,49,-1
 231 0 l 1,50,-1
 231 1374 l 1,51,-1
 356 1374 l 1,0,-1
EndSplineSet
EndChar

StartChar: n
Encoding: 110 110 50
Width: 1911
Flags: W
LayerCount: 2
Fore
SplineSet
1561 0 m 1,0,-1
 1561 907 l 2,1,2
 1561 1021 1561 1021 1530.5 1094.5 c 128,-1,3
 1500 1168 1500 1168 1443.5 1211 c 128,-1,4
 1387 1254 1387 1254 1306 1271 c 128,-1,5
 1225 1288 1225 1288 1124 1288 c 0,6,7
 1007 1288 1007 1288 894.5 1259.5 c 128,-1,8
 782 1231 782 1231 682 1187.5 c 128,-1,9
 582 1144 582 1144 498 1091 c 128,-1,10
 414 1038 414 1038 356 989 c 1,11,-1
 356 0 l 1,12,-1
 231 0 l 1,13,-1
 231 1374 l 1,14,-1
 356 1374 l 1,15,-1
 356 1133 l 1,16,17
 426 1177 426 1177 510.5 1225.5 c 128,-1,18
 595 1274 595 1274 692.5 1314.5 c 128,-1,19
 790 1355 790 1355 901 1381 c 128,-1,20
 1012 1407 1012 1407 1135 1407 c 0,21,22
 1274 1407 1274 1407 1377.5 1373.5 c 128,-1,23
 1481 1340 1481 1340 1549.5 1278.5 c 128,-1,24
 1618 1217 1618 1217 1652 1129.5 c 128,-1,25
 1686 1042 1686 1042 1686 934 c 2,26,-1
 1686 0 l 1,27,-1
 1561 0 l 1,0,-1
EndSplineSet
EndChar

StartChar: o
Encoding: 111 111 51
Width: 2015
Flags: W
LayerCount: 2
Fore
SplineSet
1880 686 m 256,0,1
 1880 501 1880 501 1813 366.5 c 128,-1,2
 1746 232 1746 232 1629 144.5 c 128,-1,3
 1512 57 1512 57 1353 15 c 128,-1,4
 1194 -27 1194 -27 1010 -27 c 0,5,6
 825 -27 825 -27 665 15 c 128,-1,7
 505 57 505 57 387 144.5 c 128,-1,8
 269 232 269 232 202 366.5 c 128,-1,9
 135 501 135 501 135 686 c 0,10,11
 135 809 135 809 166 909.5 c 128,-1,12
 197 1010 197 1010 253 1089.5 c 128,-1,13
 309 1169 309 1169 388.5 1227 c 128,-1,14
 468 1285 468 1285 565.5 1323.5 c 128,-1,15
 663 1362 663 1362 775 1380.5 c 128,-1,16
 887 1399 887 1399 1010 1399 c 0,17,18
 1194 1399 1194 1399 1353 1357 c 128,-1,19
 1512 1315 1512 1315 1629 1227.5 c 128,-1,20
 1746 1140 1746 1140 1813 1005.5 c 128,-1,21
 1880 871 1880 871 1880 686 c 256,0,1
1751 686 m 256,22,23
 1751 832 1751 832 1703.5 944 c 128,-1,24
 1656 1056 1656 1056 1563 1132.5 c 128,-1,25
 1470 1209 1470 1209 1331.5 1248.5 c 128,-1,26
 1193 1288 1193 1288 1010 1288 c 256,27,28
 827 1288 827 1288 687.5 1248 c 128,-1,29
 548 1208 548 1208 454 1131.5 c 128,-1,30
 360 1055 360 1055 312 942.5 c 128,-1,31
 264 830 264 830 264 686 c 0,32,33
 264 540 264 540 312 428 c 128,-1,34
 360 316 360 316 454 239.5 c 128,-1,35
 548 163 548 163 687.5 123.5 c 128,-1,36
 827 84 827 84 1010 84 c 256,37,38
 1193 84 1193 84 1331.5 123.5 c 128,-1,39
 1470 163 1470 163 1563 239.5 c 128,-1,40
 1656 316 1656 316 1703.5 428 c 128,-1,41
 1751 540 1751 540 1751 686 c 256,22,23
EndSplineSet
EndChar

StartChar: p
Encoding: 112 112 52
Width: 1677
Flags: W
LayerCount: 2
Fore
SplineSet
1571 952 m 256,0,1
 1571 849 1571 849 1537.5 770 c 128,-1,2
 1504 691 1504 691 1432 637 c 128,-1,3
 1360 583 1360 583 1246.5 555.5 c 128,-1,4
 1133 528 1133 528 973 528 c 2,5,-1
 356 528 l 1,6,-1
 356 0 l 1,7,-1
 231 0 l 1,8,-1
 231 1374 l 1,9,-1
 973 1374 l 2,10,11
 1133 1374 1133 1374 1246.5 1346.5 c 128,-1,12
 1360 1319 1360 1319 1432 1266 c 128,-1,13
 1504 1213 1504 1213 1537.5 1134 c 128,-1,14
 1571 1055 1571 1055 1571 952 c 256,0,1
1442 952 m 0,15,16
 1442 1050 1442 1050 1409.5 1110 c 128,-1,17
 1377 1170 1377 1170 1309.5 1202.5 c 128,-1,18
 1242 1235 1242 1235 1138.5 1246 c 128,-1,19
 1035 1257 1035 1257 893 1257 c 2,20,-1
 356 1257 l 1,21,-1
 356 645 l 1,22,-1
 893 645 l 2,23,24
 948 645 948 645 1010.5 644.5 c 128,-1,25
 1073 644 1073 644 1134 650.5 c 128,-1,26
 1195 657 1195 657 1250.5 673.5 c 128,-1,27
 1306 690 1306 690 1348.5 724 c 128,-1,28
 1391 758 1391 758 1416.5 813 c 128,-1,29
 1442 868 1442 868 1442 952 c 0,15,16
EndSplineSet
EndChar

StartChar: q
Encoding: 113 113 53
Width: 2015
Flags: W
LayerCount: 2
Fore
SplineSet
1880 686 m 0,0,1
 1880 508 1880 508 1818 377.5 c 128,-1,2
 1756 247 1756 247 1649 160 c 1,3,4
 1717 145 1717 145 1779 133.5 c 128,-1,5
 1841 122 1841 122 1889 114 c 0,6,7
 1945 104 1945 104 1995 98 c 1,8,-1
 1948 -33 l 1,9,-1
 1499 68 l 1,10,11
 1394 20 1394 20 1270.5 -3.5 c 128,-1,12
 1147 -27 1147 -27 1010 -27 c 0,13,14
 825 -27 825 -27 665 15 c 128,-1,15
 505 57 505 57 387 144.5 c 128,-1,16
 269 232 269 232 202 366.5 c 128,-1,17
 135 501 135 501 135 686 c 0,18,19
 135 809 135 809 166 909.5 c 128,-1,20
 197 1010 197 1010 253 1089.5 c 128,-1,21
 309 1169 309 1169 388.5 1227 c 128,-1,22
 468 1285 468 1285 565.5 1323.5 c 128,-1,23
 663 1362 663 1362 775 1380.5 c 128,-1,24
 887 1399 887 1399 1010 1399 c 0,25,26
 1194 1399 1194 1399 1353 1357 c 128,-1,27
 1512 1315 1512 1315 1629 1227.5 c 128,-1,28
 1746 1140 1746 1140 1813 1005.5 c 128,-1,29
 1880 871 1880 871 1880 686 c 0,0,1
1751 686 m 256,30,31
 1751 832 1751 832 1703.5 944 c 128,-1,32
 1656 1056 1656 1056 1563 1132.5 c 128,-1,33
 1470 1209 1470 1209 1331.5 1248.5 c 128,-1,34
 1193 1288 1193 1288 1010 1288 c 256,35,36
 827 1288 827 1288 687.5 1248 c 128,-1,37
 548 1208 548 1208 454 1131.5 c 128,-1,38
 360 1055 360 1055 312 942.5 c 128,-1,39
 264 830 264 830 264 686 c 0,40,41
 264 540 264 540 312 428 c 128,-1,42
 360 316 360 316 454 239.5 c 128,-1,43
 548 163 548 163 687.5 123.5 c 128,-1,44
 827 84 827 84 1010 84 c 256,45,46
 1193 84 1193 84 1331.5 123.5 c 128,-1,47
 1470 163 1470 163 1563 239.5 c 128,-1,48
 1656 316 1656 316 1703.5 428 c 128,-1,49
 1751 540 1751 540 1751 686 c 256,30,31
EndSplineSet
EndChar

StartChar: r
Encoding: 114 114 54
Width: 1249
Flags: W
LayerCount: 2
Fore
SplineSet
1249 1268 m 1,0,1
 1220 1277 1220 1277 1168.5 1287.5 c 128,-1,2
 1117 1298 1117 1298 1036 1298 c 0,3,4
 924 1298 924 1298 825.5 1270.5 c 128,-1,5
 727 1243 727 1243 642.5 1196 c 128,-1,6
 558 1149 558 1149 486 1086.5 c 128,-1,7
 414 1024 414 1024 356 954 c 1,8,-1
 356 0 l 1,9,-1
 231 0 l 1,10,-1
 231 1374 l 1,11,-1
 356 1374 l 1,12,-1
 356 1094 l 1,13,14
 423 1163 423 1163 501.5 1221 c 128,-1,15
 580 1279 580 1279 667 1320.5 c 128,-1,16
 754 1362 754 1362 849.5 1385.5 c 128,-1,17
 945 1409 945 1409 1047 1409 c 0,18,19
 1082 1409 1082 1409 1110 1407.5 c 128,-1,20
 1138 1406 1138 1406 1161.5 1403.5 c 128,-1,21
 1185 1401 1185 1401 1206 1398 c 128,-1,22
 1227 1395 1227 1395 1249 1391 c 1,23,-1
 1249 1268 l 1,24,-1
 1249 1268 l 1,0,1
EndSplineSet
EndChar

StartChar: s
Encoding: 115 115 55
Width: 1612
Flags: W
LayerCount: 2
Fore
SplineSet
1341 1171 m 1,0,1
 1302 1190 1302 1190 1251 1211.5 c 128,-1,2
 1200 1233 1200 1233 1134.5 1250 c 128,-1,3
 1069 1267 1069 1267 987 1278.5 c 128,-1,4
 905 1290 905 1290 805 1290 c 0,5,6
 684 1290 684 1290 589.5 1276 c 128,-1,7
 495 1262 495 1262 429.5 1232.5 c 128,-1,8
 364 1203 364 1203 329.5 1158 c 128,-1,9
 295 1113 295 1113 295 1051 c 0,10,11
 295 999 295 999 327.5 960 c 128,-1,12
 360 921 360 921 415.5 891 c 128,-1,13
 471 861 471 861 545.5 836.5 c 128,-1,14
 620 812 620 812 703.5 790.5 c 128,-1,15
 787 769 787 769 875.5 747 c 128,-1,16
 964 725 964 725 1047.5 699.5 c 128,-1,17
 1131 674 1131 674 1205.5 642.5 c 128,-1,18
 1280 611 1280 611 1335.5 569 c 128,-1,19
 1391 527 1391 527 1423.5 473 c 128,-1,20
 1456 419 1456 419 1456 348 c 0,21,22
 1456 271 1456 271 1427 213.5 c 128,-1,23
 1398 156 1398 156 1348.5 114.5 c 128,-1,24
 1299 73 1299 73 1232.5 45.5 c 128,-1,25
 1166 18 1166 18 1090.5 2 c 128,-1,26
 1015 -14 1015 -14 934.5 -20.5 c 128,-1,27
 854 -27 854 -27 776 -27 c 0,28,29
 597 -27 597 -27 451.5 -1 c 128,-1,30
 306 25 306 25 174 70 c 1,31,-1
 174 223 l 1,32,33
 310 142 310 142 461.5 112 c 128,-1,34
 613 82 613 82 780 82 c 0,35,36
 898 82 898 82 998 96 c 128,-1,37
 1098 110 1098 110 1171 140.5 c 128,-1,38
 1244 171 1244 171 1284.5 220 c 128,-1,39
 1325 269 1325 269 1325 340 c 0,40,41
 1325 397 1325 397 1292.5 440 c 128,-1,42
 1260 483 1260 483 1204.5 515.5 c 128,-1,43
 1149 548 1149 548 1074.5 573 c 128,-1,44
 1000 598 1000 598 917 619.5 c 128,-1,45
 834 641 834 641 745.5 661.5 c 128,-1,46
 657 682 657 682 574 706 c 128,-1,47
 491 730 491 730 416.5 760 c 128,-1,48
 342 790 342 790 286.5 830.5 c 128,-1,49
 231 871 231 871 198.5 924 c 128,-1,50
 166 977 166 977 166 1047 c 0,51,52
 166 1116 166 1116 192 1169.5 c 128,-1,53
 218 1223 218 1223 263.5 1262 c 128,-1,54
 309 1301 309 1301 370 1327.5 c 128,-1,55
 431 1354 431 1354 500.5 1369.5 c 128,-1,56
 570 1385 570 1385 645 1392 c 128,-1,57
 720 1399 720 1399 793 1399 c 0,58,59
 873 1399 873 1399 944.5 1392 c 128,-1,60
 1016 1385 1016 1385 1082.5 1373.5 c 128,-1,61
 1149 1362 1149 1362 1212.5 1347 c 128,-1,62
 1276 1332 1276 1332 1341 1315 c 1,63,-1
 1341 1171 l 1,0,1
EndSplineSet
EndChar

StartChar: t
Encoding: 116 116 56
Width: 1452
Flags: W
LayerCount: 2
Fore
SplineSet
788 1260 m 1,0,-1
 788 0 l 1,1,-1
 664 0 l 1,2,-1
 664 1260 l 1,3,-1
 39 1260 l 1,4,-1
 39 1374 l 1,5,-1
 1413 1374 l 1,6,-1
 1413 1260 l 1,7,-1
 788 1260 l 1,0,-1
EndSplineSet
EndChar

StartChar: u
Encoding: 117 117 57
Width: 1907
Flags: W
LayerCount: 2
Fore
SplineSet
352 1374 m 1,0,-1
 352 467 l 2,1,2
 351 352 351 352 381 278 c 128,-1,3
 411 204 411 204 467.5 161.5 c 128,-1,4
 524 119 524 119 604.5 102.5 c 128,-1,5
 685 86 685 86 786 86 c 0,6,7
 903 86 903 86 1015 114.5 c 128,-1,8
 1127 143 1127 143 1226 186.5 c 128,-1,9
 1325 230 1325 230 1407.5 283 c 128,-1,10
 1490 336 1490 336 1548 385 c 1,11,-1
 1548 1374 l 1,12,-1
 1675 1374 l 1,13,-1
 1675 0 l 1,14,-1
 1548 0 l 1,15,-1
 1548 242 l 1,16,17
 1478 197 1478 197 1395 148.5 c 128,-1,18
 1312 100 1312 100 1215.5 59.5 c 128,-1,19
 1119 19 1119 19 1009 -7 c 128,-1,20
 899 -33 899 -33 776 -33 c 0,21,22
 637 -33 637 -33 533.5 2 c 128,-1,23
 430 37 430 37 361.5 100 c 128,-1,24
 293 163 293 163 259 249.5 c 128,-1,25
 225 336 225 336 225 440 c 2,26,-1
 225 1374 l 1,27,-1
 352 1374 l 1,0,-1
EndSplineSet
EndChar

StartChar: v
Encoding: 118 118 58
Width: 1675
Flags: W
LayerCount: 2
Fore
SplineSet
928 0 m 1,0,-1
 741 0 l 1,1,-1
 55 1374 l 1,2,-1
 195 1374 l 1,3,-1
 838 86 l 1,4,-1
 1481 1374 l 1,5,-1
 1620 1374 l 1,6,-1
 928 0 l 1,0,-1
EndSplineSet
EndChar

StartChar: w
Encoding: 119 119 59
Width: 2593
Flags: W
LayerCount: 2
Fore
SplineSet
1380 1374 m 1,0,-1
 1870 100 l 1,1,-1
 2378 1374 l 1,2,-1
 2517 1374 l 1,3,-1
 1964 0 l 1,4,-1
 1778 0 l 1,5,-1
 1296 1241 l 1,6,-1
 815 0 l 1,7,-1
 629 0 l 1,8,-1
 76 1374 l 1,9,-1
 215 1374 l 1,10,-1
 723 100 l 1,11,-1
 1212 1374 l 1,12,-1
 1380 1374 l 1,0,-1
EndSplineSet
EndChar

StartChar: x
Encoding: 120 120 60
Width: 1683
Flags: W
LayerCount: 2
Fore
SplineSet
842 621 m 1,0,-1
 250 0 l 1,1,-1
 92 0 l 1,2,-1
 764 705 l 1,3,-1
 125 1374 l 1,4,-1
 283 1374 l 1,5,-1
 842 786 l 1,6,-1
 1403 1374 l 1,7,-1
 1561 1374 l 1,8,-1
 922 705 l 1,9,-1
 1593 0 l 1,10,-1
 1436 0 l 1,11,-1
 842 621 l 1,0,-1
EndSplineSet
EndChar

StartChar: y
Encoding: 121 121 61
Width: 1866
Flags: W
LayerCount: 2
Fore
SplineSet
1634 502 m 2,0,1
 1634 367 1634 367 1571 268.5 c 128,-1,2
 1508 170 1508 170 1397.5 105 c 128,-1,3
 1287 40 1287 40 1136.5 8.5 c 128,-1,4
 986 -23 986 -23 811 -23 c 0,5,6
 621 -23 621 -23 462 1.5 c 128,-1,7
 303 26 303 26 184 70 c 1,8,-1
 184 215 l 1,9,10
 248 188 248 188 316 165 c 128,-1,11
 384 142 384 142 461 124.5 c 128,-1,12
 538 107 538 107 625.5 97.5 c 128,-1,13
 713 88 713 88 815 88 c 0,14,15
 959 88 959 88 1085 115.5 c 128,-1,16
 1211 143 1211 143 1304.5 195.5 c 128,-1,17
 1398 248 1398 248 1452.5 325 c 128,-1,18
 1507 402 1507 402 1507 502 c 2,19,-1
 1507 762 l 1,20,21
 1459 697 1459 697 1389.5 637.5 c 128,-1,22
 1320 578 1320 578 1234.5 532.5 c 128,-1,23
 1149 487 1149 487 1049 459.5 c 128,-1,24
 949 432 949 432 838 432 c 0,25,26
 712 432 712 432 614.5 455.5 c 128,-1,27
 517 479 517 479 444.5 520 c 128,-1,28
 372 561 372 561 322 617.5 c 128,-1,29
 272 674 272 674 241.5 740.5 c 128,-1,30
 211 807 211 807 197.5 880 c 128,-1,31
 184 953 184 953 184 1028 c 2,32,-1
 184 1374 l 1,33,-1
 311 1374 l 1,34,-1
 311 1055 l 2,35,36
 311 940 311 940 338.5 846 c 128,-1,37
 366 752 366 752 429 685 c 128,-1,38
 492 618 492 618 594.5 581.5 c 128,-1,39
 697 545 697 545 848 545 c 0,40,41
 965 545 965 545 1063 576.5 c 128,-1,42
 1161 608 1161 608 1242 661.5 c 128,-1,43
 1323 715 1323 715 1389 785 c 128,-1,44
 1455 855 1455 855 1507 932 c 1,45,-1
 1507 1374 l 1,46,-1
 1634 1374 l 1,47,-1
 1634 502 l 2,0,1
EndSplineSet
EndChar

StartChar: z
Encoding: 122 122 62
Width: 1491
Flags: W
LayerCount: 2
Fore
SplineSet
147 0 m 1,0,-1
 147 102 l 1,1,-1
 1143 1257 l 1,2,-1
 174 1257 l 1,3,-1
 174 1374 l 1,4,-1
 1337 1374 l 1,5,-1
 1337 1307 l 1,6,-1
 311 117 l 1,7,-1
 1358 117 l 1,8,-1
 1358 0 l 1,9,-1
 147 0 l 1,0,-1
EndSplineSet
EndChar

StartChar: circumflex
Encoding: 710 710 63
Width: 1081
Flags: W
LayerCount: 2
Fore
SplineSet
889 1139 m 1,0,-1
 541 1298 l 1,1,-1
 193 1139 l 1,2,-1
 154 1210 l 1,3,-1
 541 1430 l 1,4,-1
 928 1210 l 1,5,-1
 889 1139 l 1,0,-1
EndSplineSet
EndChar

StartChar: ring
Encoding: 730 730 64
Width: 1081
Flags: W
LayerCount: 2
Fore
SplineSet
279 1303 m 0,0,1
 279 1346 279 1346 297.5 1381 c 128,-1,2
 316 1416 316 1416 350.5 1440.5 c 128,-1,3
 385 1465 385 1465 433.5 1478 c 128,-1,4
 482 1491 482 1491 541 1491 c 0,5,6
 599 1491 599 1491 647.5 1478 c 128,-1,7
 696 1465 696 1465 730.5 1440.5 c 128,-1,8
 765 1416 765 1416 784 1381 c 128,-1,9
 803 1346 803 1346 803 1303 c 0,10,11
 803 1259 803 1259 784 1224 c 128,-1,12
 765 1189 765 1189 730.5 1164.5 c 128,-1,13
 696 1140 696 1140 647.5 1127 c 128,-1,14
 599 1114 599 1114 541 1114 c 0,15,16
 482 1114 482 1114 433.5 1127 c 128,-1,17
 385 1140 385 1140 350.5 1164.5 c 128,-1,18
 316 1189 316 1189 297.5 1224 c 128,-1,19
 279 1259 279 1259 279 1303 c 0,0,1
381 1303 m 0,20,21
 381 1262 381 1262 418.5 1234 c 128,-1,22
 456 1206 456 1206 541 1206 c 0,23,24
 625 1206 625 1206 661.5 1234 c 128,-1,25
 698 1262 698 1262 698 1303 c 0,26,27
 698 1343 698 1343 661.5 1371 c 128,-1,28
 625 1399 625 1399 541 1399 c 0,29,30
 456 1399 456 1399 418.5 1371 c 128,-1,31
 381 1343 381 1343 381 1303 c 0,20,21
EndSplineSet
EndChar

StartChar: tilde
Encoding: 732 732 65
Width: 1081
Flags: W
LayerCount: 2
Fore
SplineSet
893 1368 m 1,0,1
 893 1342 893 1342 885.5 1304 c 128,-1,2
 878 1266 878 1266 857 1231 c 128,-1,3
 836 1196 836 1196 799.5 1171.5 c 128,-1,4
 763 1147 763 1147 705 1147 c 0,5,6
 658 1147 658 1147 612.5 1166 c 128,-1,7
 567 1185 567 1185 524.5 1207.5 c 128,-1,8
 482 1230 482 1230 443.5 1249 c 128,-1,9
 405 1268 405 1268 373 1268 c 0,10,11
 343 1268 343 1268 325.5 1253 c 128,-1,12
 308 1238 308 1238 299 1217.5 c 128,-1,13
 290 1197 290 1197 287 1177 c 128,-1,14
 284 1157 284 1157 283 1147 c 1,15,-1
 188 1147 l 1,16,17
 188 1172 188 1172 196 1209.5 c 128,-1,18
 204 1247 204 1247 225 1282.5 c 128,-1,19
 246 1318 246 1318 283 1343 c 128,-1,20
 320 1368 320 1368 379 1368 c 0,21,22
 418 1368 418 1368 461 1349 c 128,-1,23
 504 1330 504 1330 547.5 1307.5 c 128,-1,24
 591 1285 591 1285 632 1266 c 128,-1,25
 673 1247 673 1247 709 1247 c 0,26,27
 739 1247 739 1247 756.5 1262 c 128,-1,28
 774 1277 774 1277 783 1297 c 128,-1,29
 792 1317 792 1317 795 1337 c 128,-1,30
 798 1357 798 1357 799 1368 c 1,31,-1
 893 1368 l 1,32,-1
 893 1368 l 1,0,1
EndSplineSet
EndChar

StartChar: endash
Encoding: 8211 8211 66
Width: 860
Flags: W
LayerCount: 2
Fore
SplineSet
41 631 m 1,0,-1
 41 741 l 1,1,-1
 819 741 l 1,2,-1
 819 631 l 1,3,-1
 41 631 l 1,0,-1
EndSplineSet
EndChar

StartChar: emdash
Encoding: 8212 8212 67
Width: 2048
Flags: W
LayerCount: 2
Fore
SplineSet
0 631 m 1,0,-1
 0 741 l 1,1,-1
 2048 741 l 1,2,-1
 2048 631 l 1,3,-1
 0 631 l 1,0,-1
EndSplineSet
EndChar

StartChar: quoteleft
Encoding: 8216 8216 68
Width: 334
Flags: W
LayerCount: 2
Fore
SplineSet
61 1014 m 1,0,-1
 172 1374 l 1,1,-1
 272 1374 l 1,2,-1
 205 1014 l 1,3,-1
 61 1014 l 1,0,-1
EndSplineSet
EndChar

StartChar: quoteright
Encoding: 8217 8217 69
Width: 334
Flags: W
LayerCount: 2
Fore
SplineSet
162 1014 m 1,0,-1
 61 1014 l 1,1,-1
 129 1374 l 1,2,-1
 272 1374 l 1,3,-1
 162 1014 l 1,0,-1
EndSplineSet
EndChar

StartChar: quotesinglbase
Encoding: 8218 8218 70
Width: 334
Flags: W
LayerCount: 2
Fore
SplineSet
162 -184 m 1,0,-1
 61 -184 l 1,1,-1
 129 176 l 1,2,-1
 272 176 l 1,3,-1
 162 -184 l 1,0,-1
EndSplineSet
EndChar

StartChar: quotedblleft
Encoding: 8220 8220 71
Width: 621
Flags: W
LayerCount: 2
Fore
SplineSet
61 1014 m 1,0,-1
 172 1374 l 1,1,-1
 272 1374 l 1,2,-1
 205 1014 l 1,3,-1
 61 1014 l 1,0,-1
348 1014 m 1,4,-1
 459 1374 l 1,5,-1
 559 1374 l 1,6,-1
 492 1014 l 1,7,-1
 348 1014 l 1,4,-1
EndSplineSet
EndChar

StartChar: quotedblright
Encoding: 8221 8221 72
Width: 621
Flags: W
LayerCount: 2
Fore
SplineSet
559 1374 m 1,0,-1
 449 1014 l 1,1,-1
 348 1014 l 1,2,-1
 416 1374 l 1,3,-1
 559 1374 l 1,0,-1
272 1374 m 1,4,-1
 162 1014 l 1,5,-1
 61 1014 l 1,6,-1
 129 1374 l 1,7,-1
 272 1374 l 1,4,-1
EndSplineSet
EndChar

StartChar: quotedblbase
Encoding: 8222 8222 73
Width: 621
Flags: W
LayerCount: 2
Fore
SplineSet
559 176 m 1,0,-1
 449 -184 l 1,1,-1
 348 -184 l 1,2,-1
 416 176 l 1,3,-1
 559 176 l 1,0,-1
272 176 m 1,4,-1
 162 -184 l 1,5,-1
 61 -184 l 1,6,-1
 129 176 l 1,7,-1
 272 176 l 1,4,-1
EndSplineSet
EndChar

StartChar: bullet
Encoding: 8226 8226 74
Width: 721
Flags: W
LayerCount: 2
Fore
SplineSet
164 707 m 0,0,1
 164 747 164 747 179.5 783 c 128,-1,2
 195 819 195 819 221.5 845.5 c 128,-1,3
 248 872 248 872 283.5 887.5 c 128,-1,4
 319 903 319 903 360 903 c 256,5,6
 401 903 401 903 437 887.5 c 128,-1,7
 473 872 473 872 499.5 845.5 c 128,-1,8
 526 819 526 819 541.5 783 c 128,-1,9
 557 747 557 747 557 707 c 0,10,11
 557 666 557 666 541.5 630 c 128,-1,12
 526 594 526 594 499.5 567.5 c 128,-1,13
 473 541 473 541 437 525.5 c 128,-1,14
 401 510 401 510 360 510 c 256,15,16
 319 510 319 510 283.5 525.5 c 128,-1,17
 248 541 248 541 221.5 567.5 c 128,-1,18
 195 594 195 594 179.5 630 c 128,-1,19
 164 666 164 666 164 707 c 0,0,1
EndSplineSet
EndChar

StartChar: ellipsis
Encoding: 8230 8230 75
Width: 1137
Flags: W
LayerCount: 2
Fore
SplineSet
102 0 m 1,0,-1
 102 217 l 1,1,-1
 276 217 l 1,2,-1
 276 0 l 1,3,-1
 102 0 l 1,0,-1
481 0 m 1,4,-1
 481 217 l 1,5,-1
 655 217 l 1,6,-1
 655 0 l 1,7,-1
 481 0 l 1,4,-1
860 0 m 1,8,-1
 860 217 l 1,9,-1
 1034 217 l 1,10,-1
 1034 0 l 1,11,-1
 860 0 l 1,8,-1
EndSplineSet
EndChar

StartChar: guilsinglleft
Encoding: 8249 8249 76
Width: 528
Flags: W
LayerCount: 2
Fore
SplineSet
82 641 m 1,0,-1
 82 731 l 1,1,-1
 367 1067 l 1,2,-1
 453 993 l 1,3,-1
 197 686 l 1,4,-1
 453 379 l 1,5,-1
 367 305 l 1,6,-1
 82 641 l 1,0,-1
EndSplineSet
EndChar

StartChar: guilsinglright
Encoding: 8250 8250 77
Width: 528
Flags: W
LayerCount: 2
Fore
SplineSet
168 305 m 1,0,-1
 82 379 l 1,1,-1
 338 686 l 1,2,-1
 82 993 l 1,3,-1
 168 1067 l 1,4,-1
 453 731 l 1,5,-1
 453 641 l 1,6,-1
 168 305 l 1,0,-1
EndSplineSet
EndChar

StartChar: fraction
Encoding: 8260 8260 78
Width: 410
Flags: W
LayerCount: 2
Fore
SplineSet
-274 0 m 1,0,-1
 -410 0 l 1,1,-1
 686 1374 l 1,2,-1
 819 1374 l 1,3,-1
 -274 0 l 1,0,-1
EndSplineSet
EndChar

StartChar: Euro
Encoding: 8364 8364 79
Width: 1706
Flags: W
LayerCount: 2
Fore
SplineSet
90 893 m 1,0,-1
 285 893 l 1,1,2
 316 1014 316 1014 381.5 1108.5 c 128,-1,3
 447 1203 447 1203 541.5 1267.5 c 128,-1,4
 636 1332 636 1332 755 1365.5 c 128,-1,5
 874 1399 874 1399 1012 1399 c 0,6,7
 1102 1399 1102 1399 1175 1389 c 128,-1,8
 1248 1379 1248 1379 1311 1362 c 128,-1,9
 1374 1345 1374 1345 1432 1321 c 128,-1,10
 1490 1297 1490 1297 1550 1270 c 1,11,-1
 1550 1092 l 1,12,13
 1502 1139 1502 1139 1442 1175.5 c 128,-1,14
 1382 1212 1382 1212 1313.5 1237.5 c 128,-1,15
 1245 1263 1245 1263 1169.5 1276.5 c 128,-1,16
 1094 1290 1094 1290 1016 1290 c 0,17,18
 902 1290 902 1290 803.5 1264 c 128,-1,19
 705 1238 705 1238 627.5 1188 c 128,-1,20
 550 1138 550 1138 495 1064 c 128,-1,21
 440 990 440 990 412 893 c 1,22,-1
 1225 893 l 1,23,-1
 1190 784 l 1,24,-1
 389 784 l 1,25,26
 386 760 386 760 385.5 735.5 c 128,-1,27
 385 711 385 711 385 686 c 0,28,29
 385 664 385 664 386 644.5 c 128,-1,30
 387 625 387 625 389 606 c 1,31,-1
 1126 606 l 1,32,-1
 1092 498 l 1,33,-1
 408 498 l 1,34,35
 434 396 434 396 488.5 318.5 c 128,-1,36
 543 241 543 241 621.5 188.5 c 128,-1,37
 700 136 700 136 799.5 109 c 128,-1,38
 899 82 899 82 1016 82 c 0,39,40
 1094 82 1094 82 1169.5 96 c 128,-1,41
 1245 110 1245 110 1313.5 136 c 128,-1,42
 1382 162 1382 162 1442 199 c 128,-1,43
 1502 236 1502 236 1550 283 c 1,44,-1
 1550 104 l 1,45,46
 1490 77 1490 77 1428.5 53 c 128,-1,47
 1367 29 1367 29 1302 11 c 128,-1,48
 1237 -7 1237 -7 1165 -17 c 128,-1,49
 1093 -27 1093 -27 1012 -27 c 0,50,51
 871 -27 871 -27 750 8 c 128,-1,52
 629 43 629 43 534 109.5 c 128,-1,53
 439 176 439 176 374 274 c 128,-1,54
 309 372 309 372 281 498 c 1,55,-1
 55 498 l 1,56,-1
 90 606 l 1,57,-1
 262 606 l 1,58,59
 260 625 260 625 260 644.5 c 128,-1,60
 260 664 260 664 260 686 c 0,61,62
 260 711 260 711 261 735.5 c 128,-1,63
 262 760 262 760 264 784 c 1,64,-1
 55 784 l 1,65,-1
 90 893 l 1,0,-1
EndSplineSet
EndChar

StartChar: trademark
Encoding: 8482 8482 80
Width: 1585
Flags: W
LayerCount: 2
Fore
SplineSet
350 1296 m 1,0,-1
 350 778 l 1,1,-1
 260 778 l 1,2,-1
 260 1296 l 1,3,-1
 61 1296 l 1,4,-1
 61 1374 l 1,5,-1
 549 1374 l 1,6,-1
 549 1296 l 1,7,-1
 350 1296 l 1,0,-1
1290 778 m 1,8,-1
 1290 1262 l 1,9,-1
 1042 778 l 1,10,-1
 979 778 l 1,11,-1
 731 1262 l 1,12,-1
 731 778 l 1,13,-1
 641 778 l 1,14,-1
 641 1374 l 1,15,-1
 758 1374 l 1,16,-1
 1012 874 l 1,17,-1
 1264 1374 l 1,18,-1
 1380 1374 l 1,19,-1
 1380 778 l 1,20,-1
 1290 778 l 1,8,-1
EndSplineSet
EndChar

StartChar: minus
Encoding: 8722 8722 81
Width: 1300
Flags: W
LayerCount: 2
Fore
SplineSet
172 631 m 1,0,-1
 172 739 l 1,1,-1
 1128 739 l 1,2,-1
 1128 631 l 1,3,-1
 172 631 l 1,0,-1
EndSplineSet
EndChar

StartChar: uni2215
Encoding: 8725 8725 82
Width: 410
Flags: W
LayerCount: 2
Fore
SplineSet
-274 0 m 1,0,-1
 -410 0 l 1,1,-1
 686 1374 l 1,2,-1
 819 1374 l 1,3,-1
 -274 0 l 1,0,-1
EndSplineSet
EndChar
